<?xml version="1.0" encoding="utf-8" standalone="no"?>
<!DOCTYPE svg PUBLIC "-//W3C//DTD SVG 1.1//EN"
  "http://www.w3.org/Graphics/SVG/1.1/DTD/svg11.dtd">
<!-- Created with matplotlib (http://matplotlib.org/) -->
<svg height="345pt" version="1.1" viewBox="0 0 460 345" width="460pt" xmlns="http://www.w3.org/2000/svg" xmlns:xlink="http://www.w3.org/1999/xlink">
 <defs>
  <style type="text/css">
*{stroke-linecap:butt;stroke-linejoin:round;}
  </style>
 </defs>
 <g id="figure_1">
  <g id="patch_1">
   <path d="M 0 345.6 
L 460.8 345.6 
L 460.8 0 
L 0 0 
z
" style="fill:#ffffff;"/>
  </g>
  <g id="axes_1">
   <g id="patch_2">
    <path d="M 57.6 307.584 
L 414.72 307.584 
L 414.72 41.472 
L 57.6 41.472 
z
" style="fill:#ffffff;"/>
   </g>
   <g id="matplotlib.axis_1">
    <g id="xtick_1">
     <g id="line2d_1">
      <defs>
       <path d="M 0 0 
L 0 3.5 
" id="mdec821737a" style="stroke:#000000;stroke-width:0.8;"/>
      </defs>
      <g>
       <use style="stroke:#000000;stroke-width:0.8;" x="70.553388" xlink:href="#mdec821737a" y="307.584"/>
      </g>
     </g>
     <g id="text_1">
      <!-- 0 -->
      <defs>
       <path d="M 31.78125 66.40625 
Q 24.171875 66.40625 20.328125 58.90625 
Q 16.5 51.421875 16.5 36.375 
Q 16.5 21.390625 20.328125 13.890625 
Q 24.171875 6.390625 31.78125 6.390625 
Q 39.453125 6.390625 43.28125 13.890625 
Q 47.125 21.390625 47.125 36.375 
Q 47.125 51.421875 43.28125 58.90625 
Q 39.453125 66.40625 31.78125 66.40625 
z
M 31.78125 74.21875 
Q 44.046875 74.21875 50.515625 64.515625 
Q 56.984375 54.828125 56.984375 36.375 
Q 56.984375 17.96875 50.515625 8.265625 
Q 44.046875 -1.421875 31.78125 -1.421875 
Q 19.53125 -1.421875 13.0625 8.265625 
Q 6.59375 17.96875 6.59375 36.375 
Q 6.59375 54.828125 13.0625 64.515625 
Q 19.53125 74.21875 31.78125 74.21875 
z
" id="DejaVuSans-30"/>
      </defs>
      <g transform="translate(67.372138 322.182437)scale(0.1 -0.1)">
       <use xlink:href="#DejaVuSans-30"/>
      </g>
     </g>
    </g>
    <g id="xtick_2">
     <g id="line2d_2">
      <g>
       <use style="stroke:#000000;stroke-width:0.8;" x="136.140165" xlink:href="#mdec821737a" y="307.584"/>
      </g>
     </g>
     <g id="text_2">
      <!-- 20 -->
      <defs>
       <path d="M 19.1875 8.296875 
L 53.609375 8.296875 
L 53.609375 0 
L 7.328125 0 
L 7.328125 8.296875 
Q 12.9375 14.109375 22.625 23.890625 
Q 32.328125 33.6875 34.8125 36.53125 
Q 39.546875 41.84375 41.421875 45.53125 
Q 43.3125 49.21875 43.3125 52.78125 
Q 43.3125 58.59375 39.234375 62.25 
Q 35.15625 65.921875 28.609375 65.921875 
Q 23.96875 65.921875 18.8125 64.3125 
Q 13.671875 62.703125 7.8125 59.421875 
L 7.8125 69.390625 
Q 13.765625 71.78125 18.9375 73 
Q 24.125 74.21875 28.421875 74.21875 
Q 39.75 74.21875 46.484375 68.546875 
Q 53.21875 62.890625 53.21875 53.421875 
Q 53.21875 48.921875 51.53125 44.890625 
Q 49.859375 40.875 45.40625 35.40625 
Q 44.1875 33.984375 37.640625 27.21875 
Q 31.109375 20.453125 19.1875 8.296875 
z
" id="DejaVuSans-32"/>
      </defs>
      <g transform="translate(129.777665 322.182437)scale(0.1 -0.1)">
       <use xlink:href="#DejaVuSans-32"/>
       <use x="63.623047" xlink:href="#DejaVuSans-30"/>
      </g>
     </g>
    </g>
    <g id="xtick_3">
     <g id="line2d_3">
      <g>
       <use style="stroke:#000000;stroke-width:0.8;" x="201.726942" xlink:href="#mdec821737a" y="307.584"/>
      </g>
     </g>
     <g id="text_3">
      <!-- 40 -->
      <defs>
       <path d="M 37.796875 64.3125 
L 12.890625 25.390625 
L 37.796875 25.390625 
z
M 35.203125 72.90625 
L 47.609375 72.90625 
L 47.609375 25.390625 
L 58.015625 25.390625 
L 58.015625 17.1875 
L 47.609375 17.1875 
L 47.609375 0 
L 37.796875 0 
L 37.796875 17.1875 
L 4.890625 17.1875 
L 4.890625 26.703125 
z
" id="DejaVuSans-34"/>
      </defs>
      <g transform="translate(195.364442 322.182437)scale(0.1 -0.1)">
       <use xlink:href="#DejaVuSans-34"/>
       <use x="63.623047" xlink:href="#DejaVuSans-30"/>
      </g>
     </g>
    </g>
    <g id="xtick_4">
     <g id="line2d_4">
      <g>
       <use style="stroke:#000000;stroke-width:0.8;" x="267.313719" xlink:href="#mdec821737a" y="307.584"/>
      </g>
     </g>
     <g id="text_4">
      <!-- 60 -->
      <defs>
       <path d="M 33.015625 40.375 
Q 26.375 40.375 22.484375 35.828125 
Q 18.609375 31.296875 18.609375 23.390625 
Q 18.609375 15.53125 22.484375 10.953125 
Q 26.375 6.390625 33.015625 6.390625 
Q 39.65625 6.390625 43.53125 10.953125 
Q 47.40625 15.53125 47.40625 23.390625 
Q 47.40625 31.296875 43.53125 35.828125 
Q 39.65625 40.375 33.015625 40.375 
z
M 52.59375 71.296875 
L 52.59375 62.3125 
Q 48.875 64.0625 45.09375 64.984375 
Q 41.3125 65.921875 37.59375 65.921875 
Q 27.828125 65.921875 22.671875 59.328125 
Q 17.53125 52.734375 16.796875 39.40625 
Q 19.671875 43.65625 24.015625 45.921875 
Q 28.375 48.1875 33.59375 48.1875 
Q 44.578125 48.1875 50.953125 41.515625 
Q 57.328125 34.859375 57.328125 23.390625 
Q 57.328125 12.15625 50.6875 5.359375 
Q 44.046875 -1.421875 33.015625 -1.421875 
Q 20.359375 -1.421875 13.671875 8.265625 
Q 6.984375 17.96875 6.984375 36.375 
Q 6.984375 53.65625 15.1875 63.9375 
Q 23.390625 74.21875 37.203125 74.21875 
Q 40.921875 74.21875 44.703125 73.484375 
Q 48.484375 72.75 52.59375 71.296875 
z
" id="DejaVuSans-36"/>
      </defs>
      <g transform="translate(260.951219 322.182437)scale(0.1 -0.1)">
       <use xlink:href="#DejaVuSans-36"/>
       <use x="63.623047" xlink:href="#DejaVuSans-30"/>
      </g>
     </g>
    </g>
    <g id="xtick_5">
     <g id="line2d_5">
      <g>
       <use style="stroke:#000000;stroke-width:0.8;" x="332.900496" xlink:href="#mdec821737a" y="307.584"/>
      </g>
     </g>
     <g id="text_5">
      <!-- 80 -->
      <defs>
       <path d="M 31.78125 34.625 
Q 24.75 34.625 20.71875 30.859375 
Q 16.703125 27.09375 16.703125 20.515625 
Q 16.703125 13.921875 20.71875 10.15625 
Q 24.75 6.390625 31.78125 6.390625 
Q 38.8125 6.390625 42.859375 10.171875 
Q 46.921875 13.96875 46.921875 20.515625 
Q 46.921875 27.09375 42.890625 30.859375 
Q 38.875 34.625 31.78125 34.625 
z
M 21.921875 38.8125 
Q 15.578125 40.375 12.03125 44.71875 
Q 8.5 49.078125 8.5 55.328125 
Q 8.5 64.0625 14.71875 69.140625 
Q 20.953125 74.21875 31.78125 74.21875 
Q 42.671875 74.21875 48.875 69.140625 
Q 55.078125 64.0625 55.078125 55.328125 
Q 55.078125 49.078125 51.53125 44.71875 
Q 48 40.375 41.703125 38.8125 
Q 48.828125 37.15625 52.796875 32.3125 
Q 56.78125 27.484375 56.78125 20.515625 
Q 56.78125 9.90625 50.3125 4.234375 
Q 43.84375 -1.421875 31.78125 -1.421875 
Q 19.734375 -1.421875 13.25 4.234375 
Q 6.78125 9.90625 6.78125 20.515625 
Q 6.78125 27.484375 10.78125 32.3125 
Q 14.796875 37.15625 21.921875 38.8125 
z
M 18.3125 54.390625 
Q 18.3125 48.734375 21.84375 45.5625 
Q 25.390625 42.390625 31.78125 42.390625 
Q 38.140625 42.390625 41.71875 45.5625 
Q 45.3125 48.734375 45.3125 54.390625 
Q 45.3125 60.0625 41.71875 63.234375 
Q 38.140625 66.40625 31.78125 66.40625 
Q 25.390625 66.40625 21.84375 63.234375 
Q 18.3125 60.0625 18.3125 54.390625 
z
" id="DejaVuSans-38"/>
      </defs>
      <g transform="translate(326.537996 322.182437)scale(0.1 -0.1)">
       <use xlink:href="#DejaVuSans-38"/>
       <use x="63.623047" xlink:href="#DejaVuSans-30"/>
      </g>
     </g>
    </g>
    <g id="xtick_6">
     <g id="line2d_6">
      <g>
       <use style="stroke:#000000;stroke-width:0.8;" x="398.487273" xlink:href="#mdec821737a" y="307.584"/>
      </g>
     </g>
     <g id="text_6">
      <!-- 100 -->
      <defs>
       <path d="M 12.40625 8.296875 
L 28.515625 8.296875 
L 28.515625 63.921875 
L 10.984375 60.40625 
L 10.984375 69.390625 
L 28.421875 72.90625 
L 38.28125 72.90625 
L 38.28125 8.296875 
L 54.390625 8.296875 
L 54.390625 0 
L 12.40625 0 
z
" id="DejaVuSans-31"/>
      </defs>
      <g transform="translate(388.943523 322.182437)scale(0.1 -0.1)">
       <use xlink:href="#DejaVuSans-31"/>
       <use x="63.623047" xlink:href="#DejaVuSans-30"/>
       <use x="127.246094" xlink:href="#DejaVuSans-30"/>
      </g>
     </g>
    </g>
    <g id="text_7">
     <!-- Epochs -->
     <defs>
      <path d="M 9.8125 72.90625 
L 55.90625 72.90625 
L 55.90625 64.59375 
L 19.671875 64.59375 
L 19.671875 43.015625 
L 54.390625 43.015625 
L 54.390625 34.71875 
L 19.671875 34.71875 
L 19.671875 8.296875 
L 56.78125 8.296875 
L 56.78125 0 
L 9.8125 0 
z
" id="DejaVuSans-45"/>
      <path d="M 18.109375 8.203125 
L 18.109375 -20.796875 
L 9.078125 -20.796875 
L 9.078125 54.6875 
L 18.109375 54.6875 
L 18.109375 46.390625 
Q 20.953125 51.265625 25.265625 53.625 
Q 29.59375 56 35.59375 56 
Q 45.5625 56 51.78125 48.09375 
Q 58.015625 40.1875 58.015625 27.296875 
Q 58.015625 14.40625 51.78125 6.484375 
Q 45.5625 -1.421875 35.59375 -1.421875 
Q 29.59375 -1.421875 25.265625 0.953125 
Q 20.953125 3.328125 18.109375 8.203125 
z
M 48.6875 27.296875 
Q 48.6875 37.203125 44.609375 42.84375 
Q 40.53125 48.484375 33.40625 48.484375 
Q 26.265625 48.484375 22.1875 42.84375 
Q 18.109375 37.203125 18.109375 27.296875 
Q 18.109375 17.390625 22.1875 11.75 
Q 26.265625 6.109375 33.40625 6.109375 
Q 40.53125 6.109375 44.609375 11.75 
Q 48.6875 17.390625 48.6875 27.296875 
z
" id="DejaVuSans-70"/>
      <path d="M 30.609375 48.390625 
Q 23.390625 48.390625 19.1875 42.75 
Q 14.984375 37.109375 14.984375 27.296875 
Q 14.984375 17.484375 19.15625 11.84375 
Q 23.34375 6.203125 30.609375 6.203125 
Q 37.796875 6.203125 41.984375 11.859375 
Q 46.1875 17.53125 46.1875 27.296875 
Q 46.1875 37.015625 41.984375 42.703125 
Q 37.796875 48.390625 30.609375 48.390625 
z
M 30.609375 56 
Q 42.328125 56 49.015625 48.375 
Q 55.71875 40.765625 55.71875 27.296875 
Q 55.71875 13.875 49.015625 6.21875 
Q 42.328125 -1.421875 30.609375 -1.421875 
Q 18.84375 -1.421875 12.171875 6.21875 
Q 5.515625 13.875 5.515625 27.296875 
Q 5.515625 40.765625 12.171875 48.375 
Q 18.84375 56 30.609375 56 
z
" id="DejaVuSans-6f"/>
      <path d="M 48.78125 52.59375 
L 48.78125 44.1875 
Q 44.96875 46.296875 41.140625 47.34375 
Q 37.3125 48.390625 33.40625 48.390625 
Q 24.65625 48.390625 19.8125 42.84375 
Q 14.984375 37.3125 14.984375 27.296875 
Q 14.984375 17.28125 19.8125 11.734375 
Q 24.65625 6.203125 33.40625 6.203125 
Q 37.3125 6.203125 41.140625 7.25 
Q 44.96875 8.296875 48.78125 10.40625 
L 48.78125 2.09375 
Q 45.015625 0.34375 40.984375 -0.53125 
Q 36.96875 -1.421875 32.421875 -1.421875 
Q 20.0625 -1.421875 12.78125 6.34375 
Q 5.515625 14.109375 5.515625 27.296875 
Q 5.515625 40.671875 12.859375 48.328125 
Q 20.21875 56 33.015625 56 
Q 37.15625 56 41.109375 55.140625 
Q 45.0625 54.296875 48.78125 52.59375 
z
" id="DejaVuSans-63"/>
      <path d="M 54.890625 33.015625 
L 54.890625 0 
L 45.90625 0 
L 45.90625 32.71875 
Q 45.90625 40.484375 42.875 44.328125 
Q 39.84375 48.1875 33.796875 48.1875 
Q 26.515625 48.1875 22.3125 43.546875 
Q 18.109375 38.921875 18.109375 30.90625 
L 18.109375 0 
L 9.078125 0 
L 9.078125 75.984375 
L 18.109375 75.984375 
L 18.109375 46.1875 
Q 21.34375 51.125 25.703125 53.5625 
Q 30.078125 56 35.796875 56 
Q 45.21875 56 50.046875 50.171875 
Q 54.890625 44.34375 54.890625 33.015625 
z
" id="DejaVuSans-68"/>
      <path d="M 44.28125 53.078125 
L 44.28125 44.578125 
Q 40.484375 46.53125 36.375 47.5 
Q 32.28125 48.484375 27.875 48.484375 
Q 21.1875 48.484375 17.84375 46.4375 
Q 14.5 44.390625 14.5 40.28125 
Q 14.5 37.15625 16.890625 35.375 
Q 19.28125 33.59375 26.515625 31.984375 
L 29.59375 31.296875 
Q 39.15625 29.25 43.1875 25.515625 
Q 47.21875 21.78125 47.21875 15.09375 
Q 47.21875 7.46875 41.1875 3.015625 
Q 35.15625 -1.421875 24.609375 -1.421875 
Q 20.21875 -1.421875 15.453125 -0.5625 
Q 10.6875 0.296875 5.421875 2 
L 5.421875 11.28125 
Q 10.40625 8.6875 15.234375 7.390625 
Q 20.0625 6.109375 24.8125 6.109375 
Q 31.15625 6.109375 34.5625 8.28125 
Q 37.984375 10.453125 37.984375 14.40625 
Q 37.984375 18.0625 35.515625 20.015625 
Q 33.0625 21.96875 24.703125 23.78125 
L 21.578125 24.515625 
Q 13.234375 26.265625 9.515625 29.90625 
Q 5.8125 33.546875 5.8125 39.890625 
Q 5.8125 47.609375 11.28125 51.796875 
Q 16.75 56 26.8125 56 
Q 31.78125 56 36.171875 55.265625 
Q 40.578125 54.546875 44.28125 53.078125 
z
" id="DejaVuSans-73"/>
     </defs>
     <g transform="translate(218.244375 335.860562)scale(0.1 -0.1)">
      <use xlink:href="#DejaVuSans-45"/>
      <use x="63.183594" xlink:href="#DejaVuSans-70"/>
      <use x="126.660156" xlink:href="#DejaVuSans-6f"/>
      <use x="187.841797" xlink:href="#DejaVuSans-63"/>
      <use x="242.822266" xlink:href="#DejaVuSans-68"/>
      <use x="306.201172" xlink:href="#DejaVuSans-73"/>
     </g>
    </g>
   </g>
   <g id="matplotlib.axis_2">
    <g id="ytick_1">
     <g id="line2d_7">
      <defs>
       <path d="M 0 0 
L -3.5 0 
" id="m43dee7d9ca" style="stroke:#000000;stroke-width:0.8;"/>
      </defs>
      <g>
       <use style="stroke:#000000;stroke-width:0.8;" x="57.6" xlink:href="#m43dee7d9ca" y="307.584"/>
      </g>
     </g>
     <g id="text_8">
      <!-- 0.000 -->
      <defs>
       <path d="M 10.6875 12.40625 
L 21 12.40625 
L 21 0 
L 10.6875 0 
z
" id="DejaVuSans-2e"/>
      </defs>
      <g transform="translate(21.971875 311.383219)scale(0.1 -0.1)">
       <use xlink:href="#DejaVuSans-30"/>
       <use x="63.623047" xlink:href="#DejaVuSans-2e"/>
       <use x="95.410156" xlink:href="#DejaVuSans-30"/>
       <use x="159.033203" xlink:href="#DejaVuSans-30"/>
       <use x="222.65625" xlink:href="#DejaVuSans-30"/>
      </g>
     </g>
    </g>
    <g id="ytick_2">
     <g id="line2d_8">
      <g>
       <use style="stroke:#000000;stroke-width:0.8;" x="57.6" xlink:href="#m43dee7d9ca" y="279.319684"/>
      </g>
     </g>
     <g id="text_9">
      <!-- 1.057 -->
      <defs>
       <path d="M 10.796875 72.90625 
L 49.515625 72.90625 
L 49.515625 64.59375 
L 19.828125 64.59375 
L 19.828125 46.734375 
Q 21.96875 47.46875 24.109375 47.828125 
Q 26.265625 48.1875 28.421875 48.1875 
Q 40.625 48.1875 47.75 41.5 
Q 54.890625 34.8125 54.890625 23.390625 
Q 54.890625 11.625 47.5625 5.09375 
Q 40.234375 -1.421875 26.90625 -1.421875 
Q 22.3125 -1.421875 17.546875 -0.640625 
Q 12.796875 0.140625 7.71875 1.703125 
L 7.71875 11.625 
Q 12.109375 9.234375 16.796875 8.0625 
Q 21.484375 6.890625 26.703125 6.890625 
Q 35.15625 6.890625 40.078125 11.328125 
Q 45.015625 15.765625 45.015625 23.390625 
Q 45.015625 31 40.078125 35.4375 
Q 35.15625 39.890625 26.703125 39.890625 
Q 22.75 39.890625 18.8125 39.015625 
Q 14.890625 38.140625 10.796875 36.28125 
z
" id="DejaVuSans-35"/>
       <path d="M 8.203125 72.90625 
L 55.078125 72.90625 
L 55.078125 68.703125 
L 28.609375 0 
L 18.3125 0 
L 43.21875 64.59375 
L 8.203125 64.59375 
z
" id="DejaVuSans-37"/>
      </defs>
      <g transform="translate(21.971875 283.118903)scale(0.1 -0.1)">
       <use xlink:href="#DejaVuSans-31"/>
       <use x="63.623047" xlink:href="#DejaVuSans-2e"/>
       <use x="95.410156" xlink:href="#DejaVuSans-30"/>
       <use x="159.033203" xlink:href="#DejaVuSans-35"/>
       <use x="222.65625" xlink:href="#DejaVuSans-37"/>
      </g>
     </g>
    </g>
    <g id="ytick_3">
     <g id="line2d_9">
      <g>
       <use style="stroke:#000000;stroke-width:0.8;" x="57.6" xlink:href="#m43dee7d9ca" y="251.055368"/>
      </g>
     </g>
     <g id="text_10">
      <!-- 2.113 -->
      <defs>
       <path d="M 40.578125 39.3125 
Q 47.65625 37.796875 51.625 33 
Q 55.609375 28.21875 55.609375 21.1875 
Q 55.609375 10.40625 48.1875 4.484375 
Q 40.765625 -1.421875 27.09375 -1.421875 
Q 22.515625 -1.421875 17.65625 -0.515625 
Q 12.796875 0.390625 7.625 2.203125 
L 7.625 11.71875 
Q 11.71875 9.328125 16.59375 8.109375 
Q 21.484375 6.890625 26.8125 6.890625 
Q 36.078125 6.890625 40.9375 10.546875 
Q 45.796875 14.203125 45.796875 21.1875 
Q 45.796875 27.640625 41.28125 31.265625 
Q 36.765625 34.90625 28.71875 34.90625 
L 20.21875 34.90625 
L 20.21875 43.015625 
L 29.109375 43.015625 
Q 36.375 43.015625 40.234375 45.921875 
Q 44.09375 48.828125 44.09375 54.296875 
Q 44.09375 59.90625 40.109375 62.90625 
Q 36.140625 65.921875 28.71875 65.921875 
Q 24.65625 65.921875 20.015625 65.03125 
Q 15.375 64.15625 9.8125 62.3125 
L 9.8125 71.09375 
Q 15.4375 72.65625 20.34375 73.4375 
Q 25.25 74.21875 29.59375 74.21875 
Q 40.828125 74.21875 47.359375 69.109375 
Q 53.90625 64.015625 53.90625 55.328125 
Q 53.90625 49.265625 50.4375 45.09375 
Q 46.96875 40.921875 40.578125 39.3125 
z
" id="DejaVuSans-33"/>
      </defs>
      <g transform="translate(21.971875 254.854586)scale(0.1 -0.1)">
       <use xlink:href="#DejaVuSans-32"/>
       <use x="63.623047" xlink:href="#DejaVuSans-2e"/>
       <use x="95.410156" xlink:href="#DejaVuSans-31"/>
       <use x="159.033203" xlink:href="#DejaVuSans-31"/>
       <use x="222.65625" xlink:href="#DejaVuSans-33"/>
      </g>
     </g>
    </g>
    <g id="ytick_4">
     <g id="line2d_10">
      <g>
       <use style="stroke:#000000;stroke-width:0.8;" x="57.6" xlink:href="#m43dee7d9ca" y="222.791051"/>
      </g>
     </g>
     <g id="text_11">
      <!-- 3.170 -->
      <g transform="translate(21.971875 226.59027)scale(0.1 -0.1)">
       <use xlink:href="#DejaVuSans-33"/>
       <use x="63.623047" xlink:href="#DejaVuSans-2e"/>
       <use x="95.410156" xlink:href="#DejaVuSans-31"/>
       <use x="159.033203" xlink:href="#DejaVuSans-37"/>
       <use x="222.65625" xlink:href="#DejaVuSans-30"/>
      </g>
     </g>
    </g>
    <g id="ytick_5">
     <g id="line2d_11">
      <g>
       <use style="stroke:#000000;stroke-width:0.8;" x="57.6" xlink:href="#m43dee7d9ca" y="194.526735"/>
      </g>
     </g>
     <g id="text_12">
      <!-- 4.226 -->
      <g transform="translate(21.971875 198.325954)scale(0.1 -0.1)">
       <use xlink:href="#DejaVuSans-34"/>
       <use x="63.623047" xlink:href="#DejaVuSans-2e"/>
       <use x="95.410156" xlink:href="#DejaVuSans-32"/>
       <use x="159.033203" xlink:href="#DejaVuSans-32"/>
       <use x="222.65625" xlink:href="#DejaVuSans-36"/>
      </g>
     </g>
    </g>
    <g id="ytick_6">
     <g id="line2d_12">
      <g>
       <use style="stroke:#000000;stroke-width:0.8;" x="57.6" xlink:href="#m43dee7d9ca" y="166.262419"/>
      </g>
     </g>
     <g id="text_13">
      <!-- 5.283 -->
      <g transform="translate(21.971875 170.061638)scale(0.1 -0.1)">
       <use xlink:href="#DejaVuSans-35"/>
       <use x="63.623047" xlink:href="#DejaVuSans-2e"/>
       <use x="95.410156" xlink:href="#DejaVuSans-32"/>
       <use x="159.033203" xlink:href="#DejaVuSans-38"/>
       <use x="222.65625" xlink:href="#DejaVuSans-33"/>
      </g>
     </g>
    </g>
    <g id="ytick_7">
     <g id="line2d_13">
      <g>
       <use style="stroke:#000000;stroke-width:0.8;" x="57.6" xlink:href="#m43dee7d9ca" y="137.998103"/>
      </g>
     </g>
     <g id="text_14">
      <!-- 6.339 -->
      <defs>
       <path d="M 10.984375 1.515625 
L 10.984375 10.5 
Q 14.703125 8.734375 18.5 7.8125 
Q 22.3125 6.890625 25.984375 6.890625 
Q 35.75 6.890625 40.890625 13.453125 
Q 46.046875 20.015625 46.78125 33.40625 
Q 43.953125 29.203125 39.59375 26.953125 
Q 35.25 24.703125 29.984375 24.703125 
Q 19.046875 24.703125 12.671875 31.3125 
Q 6.296875 37.9375 6.296875 49.421875 
Q 6.296875 60.640625 12.9375 67.421875 
Q 19.578125 74.21875 30.609375 74.21875 
Q 43.265625 74.21875 49.921875 64.515625 
Q 56.59375 54.828125 56.59375 36.375 
Q 56.59375 19.140625 48.40625 8.859375 
Q 40.234375 -1.421875 26.421875 -1.421875 
Q 22.703125 -1.421875 18.890625 -0.6875 
Q 15.09375 0.046875 10.984375 1.515625 
z
M 30.609375 32.421875 
Q 37.25 32.421875 41.125 36.953125 
Q 45.015625 41.5 45.015625 49.421875 
Q 45.015625 57.28125 41.125 61.84375 
Q 37.25 66.40625 30.609375 66.40625 
Q 23.96875 66.40625 20.09375 61.84375 
Q 16.21875 57.28125 16.21875 49.421875 
Q 16.21875 41.5 20.09375 36.953125 
Q 23.96875 32.421875 30.609375 32.421875 
z
" id="DejaVuSans-39"/>
      </defs>
      <g transform="translate(21.971875 141.797321)scale(0.1 -0.1)">
       <use xlink:href="#DejaVuSans-36"/>
       <use x="63.623047" xlink:href="#DejaVuSans-2e"/>
       <use x="95.410156" xlink:href="#DejaVuSans-33"/>
       <use x="159.033203" xlink:href="#DejaVuSans-33"/>
       <use x="222.65625" xlink:href="#DejaVuSans-39"/>
      </g>
     </g>
    </g>
    <g id="ytick_8">
     <g id="line2d_14">
      <g>
       <use style="stroke:#000000;stroke-width:0.8;" x="57.6" xlink:href="#m43dee7d9ca" y="109.733786"/>
      </g>
     </g>
     <g id="text_15">
      <!-- 7.396 -->
      <g transform="translate(21.971875 113.533005)scale(0.1 -0.1)">
       <use xlink:href="#DejaVuSans-37"/>
       <use x="63.623047" xlink:href="#DejaVuSans-2e"/>
       <use x="95.410156" xlink:href="#DejaVuSans-33"/>
       <use x="159.033203" xlink:href="#DejaVuSans-39"/>
       <use x="222.65625" xlink:href="#DejaVuSans-36"/>
      </g>
     </g>
    </g>
    <g id="ytick_9">
     <g id="line2d_15">
      <g>
       <use style="stroke:#000000;stroke-width:0.8;" x="57.6" xlink:href="#m43dee7d9ca" y="81.46947"/>
      </g>
     </g>
     <g id="text_16">
      <!-- 8.452 -->
      <g transform="translate(21.971875 85.268689)scale(0.1 -0.1)">
       <use xlink:href="#DejaVuSans-38"/>
       <use x="63.623047" xlink:href="#DejaVuSans-2e"/>
       <use x="95.410156" xlink:href="#DejaVuSans-34"/>
       <use x="159.033203" xlink:href="#DejaVuSans-35"/>
       <use x="222.65625" xlink:href="#DejaVuSans-32"/>
      </g>
     </g>
    </g>
    <g id="ytick_10">
     <g id="line2d_16">
      <g>
       <use style="stroke:#000000;stroke-width:0.8;" x="57.6" xlink:href="#m43dee7d9ca" y="53.205154"/>
      </g>
     </g>
     <g id="text_17">
      <!-- 9.509 -->
      <g transform="translate(21.971875 57.004373)scale(0.1 -0.1)">
       <use xlink:href="#DejaVuSans-39"/>
       <use x="63.623047" xlink:href="#DejaVuSans-2e"/>
       <use x="95.410156" xlink:href="#DejaVuSans-35"/>
       <use x="159.033203" xlink:href="#DejaVuSans-30"/>
       <use x="222.65625" xlink:href="#DejaVuSans-39"/>
      </g>
     </g>
    </g>
    <g id="text_18">
     <!-- Loss -->
     <defs>
      <path d="M 9.8125 72.90625 
L 19.671875 72.90625 
L 19.671875 8.296875 
L 55.171875 8.296875 
L 55.171875 0 
L 9.8125 0 
z
" id="DejaVuSans-4c"/>
     </defs>
     <g transform="translate(15.892188 185.581906)rotate(-90)scale(0.1 -0.1)">
      <use xlink:href="#DejaVuSans-4c"/>
      <use x="55.697266" xlink:href="#DejaVuSans-6f"/>
      <use x="116.878906" xlink:href="#DejaVuSans-73"/>
      <use x="168.978516" xlink:href="#DejaVuSans-73"/>
     </g>
    </g>
   </g>
   <g id="line2d_17">
    <defs>
     <path d="M 0 3 
C 0.795609 3 1.55874 2.683901 2.12132 2.12132 
C 2.683901 1.55874 3 0.795609 3 0 
C 3 -0.795609 2.683901 -1.55874 2.12132 -2.12132 
C 1.55874 -2.683901 0.795609 -3 0 -3 
C -0.795609 -3 -1.55874 -2.683901 -2.12132 -2.12132 
C -2.683901 -1.55874 -3 -0.795609 -3 0 
C -3 0.795609 -2.683901 1.55874 -2.12132 2.12132 
C -1.55874 2.683901 -0.795609 3 0 3 
z
" id="m43521b986e" style="stroke:#ff0000;"/>
    </defs>
    <g clip-path="url(#pfc592ce22c)">
     <use style="fill:#ff0000;stroke:#ff0000;" x="73.832727" xlink:href="#m43521b986e" y="160.74569"/>
     <use style="fill:#ff0000;stroke:#ff0000;" x="77.112066" xlink:href="#m43521b986e" y="184.688173"/>
     <use style="fill:#ff0000;stroke:#ff0000;" x="80.391405" xlink:href="#m43521b986e" y="200.310977"/>
     <use style="fill:#ff0000;stroke:#ff0000;" x="83.670744" xlink:href="#m43521b986e" y="212.375848"/>
     <use style="fill:#ff0000;stroke:#ff0000;" x="86.950083" xlink:href="#m43521b986e" y="218.314654"/>
     <use style="fill:#ff0000;stroke:#ff0000;" x="90.229421" xlink:href="#m43521b986e" y="234.927259"/>
     <use style="fill:#ff0000;stroke:#ff0000;" x="93.50876" xlink:href="#m43521b986e" y="234.124718"/>
     <use style="fill:#ff0000;stroke:#ff0000;" x="96.788099" xlink:href="#m43521b986e" y="242.069877"/>
     <use style="fill:#ff0000;stroke:#ff0000;" x="100.067438" xlink:href="#m43521b986e" y="241.213833"/>
     <use style="fill:#ff0000;stroke:#ff0000;" x="103.346777" xlink:href="#m43521b986e" y="245.146286"/>
     <use style="fill:#ff0000;stroke:#ff0000;" x="106.626116" xlink:href="#m43521b986e" y="251.085091"/>
     <use style="fill:#ff0000;stroke:#ff0000;" x="109.905455" xlink:href="#m43521b986e" y="245.868573"/>
     <use style="fill:#ff0000;stroke:#ff0000;" x="113.184793" xlink:href="#m43521b986e" y="253.118196"/>
     <use style="fill:#ff0000;stroke:#ff0000;" x="116.464132" xlink:href="#m43521b986e" y="260.662084"/>
     <use style="fill:#ff0000;stroke:#ff0000;" x="119.743471" xlink:href="#m43521b986e" y="253.171699"/>
     <use style="fill:#ff0000;stroke:#ff0000;" x="123.02281" xlink:href="#m43521b986e" y="260.76909"/>
     <use style="fill:#ff0000;stroke:#ff0000;" x="126.302149" xlink:href="#m43521b986e" y="256.783135"/>
     <use style="fill:#ff0000;stroke:#ff0000;" x="129.581488" xlink:href="#m43521b986e" y="262.748692"/>
     <use style="fill:#ff0000;stroke:#ff0000;" x="132.860826" xlink:href="#m43521b986e" y="261.598383"/>
     <use style="fill:#ff0000;stroke:#ff0000;" x="136.140165" xlink:href="#m43521b986e" y="262.026405"/>
     <use style="fill:#ff0000;stroke:#ff0000;" x="139.419504" xlink:href="#m43521b986e" y="263.49773"/>
     <use style="fill:#ff0000;stroke:#ff0000;" x="142.698843" xlink:href="#m43521b986e" y="261.197112"/>
     <use style="fill:#ff0000;stroke:#ff0000;" x="145.978182" xlink:href="#m43521b986e" y="270.533343"/>
     <use style="fill:#ff0000;stroke:#ff0000;" x="149.257521" xlink:href="#m43521b986e" y="267.430183"/>
     <use style="fill:#ff0000;stroke:#ff0000;" x="152.53686" xlink:href="#m43521b986e" y="273.502745"/>
     <use style="fill:#ff0000;stroke:#ff0000;" x="155.816198" xlink:href="#m43521b986e" y="267.162669"/>
     <use style="fill:#ff0000;stroke:#ff0000;" x="159.095537" xlink:href="#m43521b986e" y="267.082415"/>
     <use style="fill:#ff0000;stroke:#ff0000;" x="162.374876" xlink:href="#m43521b986e" y="269.436536"/>
     <use style="fill:#ff0000;stroke:#ff0000;" x="165.654215" xlink:href="#m43521b986e" y="269.222525"/>
     <use style="fill:#ff0000;stroke:#ff0000;" x="168.933554" xlink:href="#m43521b986e" y="269.302779"/>
     <use style="fill:#ff0000;stroke:#ff0000;" x="172.212893" xlink:href="#m43521b986e" y="270.078569"/>
     <use style="fill:#ff0000;stroke:#ff0000;" x="175.492231" xlink:href="#m43521b986e" y="275.883618"/>
     <use style="fill:#ff0000;stroke:#ff0000;" x="178.77157" xlink:href="#m43521b986e" y="276.418646"/>
     <use style="fill:#ff0000;stroke:#ff0000;" x="182.050909" xlink:href="#m43521b986e" y="268.045464"/>
     <use style="fill:#ff0000;stroke:#ff0000;" x="185.330248" xlink:href="#m43521b986e" y="270.800856"/>
     <use style="fill:#ff0000;stroke:#ff0000;" x="188.609587" xlink:href="#m43521b986e" y="275.214834"/>
     <use style="fill:#ff0000;stroke:#ff0000;" x="191.888926" xlink:href="#m43521b986e" y="276.766413"/>
     <use style="fill:#ff0000;stroke:#ff0000;" x="195.168264" xlink:href="#m43521b986e" y="272.673453"/>
     <use style="fill:#ff0000;stroke:#ff0000;" x="198.447603" xlink:href="#m43521b986e" y="279.254292"/>
     <use style="fill:#ff0000;stroke:#ff0000;" x="201.726942" xlink:href="#m43521b986e" y="275.509099"/>
     <use style="fill:#ff0000;stroke:#ff0000;" x="205.006281" xlink:href="#m43521b986e" y="278.344745"/>
     <use style="fill:#ff0000;stroke:#ff0000;" x="208.28562" xlink:href="#m43521b986e" y="279.040281"/>
     <use style="fill:#ff0000;stroke:#ff0000;" x="211.564959" xlink:href="#m43521b986e" y="275.990624"/>
     <use style="fill:#ff0000;stroke:#ff0000;" x="214.844298" xlink:href="#m43521b986e" y="276.659408"/>
     <use style="fill:#ff0000;stroke:#ff0000;" x="218.123636" xlink:href="#m43521b986e" y="277.007176"/>
     <use style="fill:#ff0000;stroke:#ff0000;" x="221.402975" xlink:href="#m43521b986e" y="281.74217"/>
     <use style="fill:#ff0000;stroke:#ff0000;" x="224.682314" xlink:href="#m43521b986e" y="274.813563"/>
     <use style="fill:#ff0000;stroke:#ff0000;" x="227.961653" xlink:href="#m43521b986e" y="278.826269"/>
     <use style="fill:#ff0000;stroke:#ff0000;" x="231.240992" xlink:href="#m43521b986e" y="272.753707"/>
     <use style="fill:#ff0000;stroke:#ff0000;" x="234.520331" xlink:href="#m43521b986e" y="277.08743"/>
     <use style="fill:#ff0000;stroke:#ff0000;" x="237.799669" xlink:href="#m43521b986e" y="281.314148"/>
     <use style="fill:#ff0000;stroke:#ff0000;" x="241.079008" xlink:href="#m43521b986e" y="279.334546"/>
     <use style="fill:#ff0000;stroke:#ff0000;" x="244.358347" xlink:href="#m43521b986e" y="278.237739"/>
     <use style="fill:#ff0000;stroke:#ff0000;" x="247.637686" xlink:href="#m43521b986e" y="281.581661"/>
     <use style="fill:#ff0000;stroke:#ff0000;" x="250.917025" xlink:href="#m43521b986e" y="279.789319"/>
     <use style="fill:#ff0000;stroke:#ff0000;" x="254.196364" xlink:href="#m43521b986e" y="276.766413"/>
     <use style="fill:#ff0000;stroke:#ff0000;" x="257.475702" xlink:href="#m43521b986e" y="279.388048"/>
     <use style="fill:#ff0000;stroke:#ff0000;" x="260.755041" xlink:href="#m43521b986e" y="280.137087"/>
     <use style="fill:#ff0000;stroke:#ff0000;" x="264.03438" xlink:href="#m43521b986e" y="279.281043"/>
     <use style="fill:#ff0000;stroke:#ff0000;" x="267.313719" xlink:href="#m43521b986e" y="278.63901"/>
     <use style="fill:#ff0000;stroke:#ff0000;" x="270.593058" xlink:href="#m43521b986e" y="281.180391"/>
     <use style="fill:#ff0000;stroke:#ff0000;" x="273.872397" xlink:href="#m43521b986e" y="281.314148"/>
     <use style="fill:#ff0000;stroke:#ff0000;" x="277.151736" xlink:href="#m43521b986e" y="277.461949"/>
     <use style="fill:#ff0000;stroke:#ff0000;" x="280.431074" xlink:href="#m43521b986e" y="285.032589"/>
     <use style="fill:#ff0000;stroke:#ff0000;" x="283.710413" xlink:href="#m43521b986e" y="285.83513"/>
     <use style="fill:#ff0000;stroke:#ff0000;" x="286.989752" xlink:href="#m43521b986e" y="279.655562"/>
     <use style="fill:#ff0000;stroke:#ff0000;" x="290.269091" xlink:href="#m43521b986e" y="280.244092"/>
     <use style="fill:#ff0000;stroke:#ff0000;" x="293.54843" xlink:href="#m43521b986e" y="285.2466"/>
     <use style="fill:#ff0000;stroke:#ff0000;" x="296.827769" xlink:href="#m43521b986e" y="279.307794"/>
     <use style="fill:#ff0000;stroke:#ff0000;" x="300.107107" xlink:href="#m43521b986e" y="284.149794"/>
     <use style="fill:#ff0000;stroke:#ff0000;" x="303.386446" xlink:href="#m43521b986e" y="281.126888"/>
     <use style="fill:#ff0000;stroke:#ff0000;" x="306.665785" xlink:href="#m43521b986e" y="287.012191"/>
     <use style="fill:#ff0000;stroke:#ff0000;" x="309.945124" xlink:href="#m43521b986e" y="283.026236"/>
     <use style="fill:#ff0000;stroke:#ff0000;" x="313.224463" xlink:href="#m43521b986e" y="280.618612"/>
     <use style="fill:#ff0000;stroke:#ff0000;" x="316.503802" xlink:href="#m43521b986e" y="285.086092"/>
     <use style="fill:#ff0000;stroke:#ff0000;" x="319.78314" xlink:href="#m43521b986e" y="284.069539"/>
     <use style="fill:#ff0000;stroke:#ff0000;" x="323.062479" xlink:href="#m43521b986e" y="282.731971"/>
     <use style="fill:#ff0000;stroke:#ff0000;" x="326.341818" xlink:href="#m43521b986e" y="287.868235"/>
     <use style="fill:#ff0000;stroke:#ff0000;" x="329.621157" xlink:href="#m43521b986e" y="280.805871"/>
     <use style="fill:#ff0000;stroke:#ff0000;" x="332.900496" xlink:href="#m43521b986e" y="284.123042"/>
     <use style="fill:#ff0000;stroke:#ff0000;" x="336.179835" xlink:href="#m43521b986e" y="286.20965"/>
     <use style="fill:#ff0000;stroke:#ff0000;" x="339.459174" xlink:href="#m43521b986e" y="283.828777"/>
     <use style="fill:#ff0000;stroke:#ff0000;" x="342.738512" xlink:href="#m43521b986e" y="281.982932"/>
     <use style="fill:#ff0000;stroke:#ff0000;" x="346.017851" xlink:href="#m43521b986e" y="284.65807"/>
     <use style="fill:#ff0000;stroke:#ff0000;" x="349.29719" xlink:href="#m43521b986e" y="281.768921"/>
     <use style="fill:#ff0000;stroke:#ff0000;" x="352.576529" xlink:href="#m43521b986e" y="285.915384"/>
     <use style="fill:#ff0000;stroke:#ff0000;" x="355.855868" xlink:href="#m43521b986e" y="285.407108"/>
     <use style="fill:#ff0000;stroke:#ff0000;" x="359.135207" xlink:href="#m43521b986e" y="286.182898"/>
     <use style="fill:#ff0000;stroke:#ff0000;" x="362.414545" xlink:href="#m43521b986e" y="284.444059"/>
     <use style="fill:#ff0000;stroke:#ff0000;" x="365.693884" xlink:href="#m43521b986e" y="284.096291"/>
     <use style="fill:#ff0000;stroke:#ff0000;" x="368.973223" xlink:href="#m43521b986e" y="284.979086"/>
     <use style="fill:#ff0000;stroke:#ff0000;" x="372.252562" xlink:href="#m43521b986e" y="284.47081"/>
     <use style="fill:#ff0000;stroke:#ff0000;" x="375.531901" xlink:href="#m43521b986e" y="278.746015"/>
     <use style="fill:#ff0000;stroke:#ff0000;" x="378.81124" xlink:href="#m43521b986e" y="281.875926"/>
     <use style="fill:#ff0000;stroke:#ff0000;" x="382.090579" xlink:href="#m43521b986e" y="284.684821"/>
     <use style="fill:#ff0000;stroke:#ff0000;" x="385.369917" xlink:href="#m43521b986e" y="287.413462"/>
     <use style="fill:#ff0000;stroke:#ff0000;" x="388.649256" xlink:href="#m43521b986e" y="284.363805"/>
     <use style="fill:#ff0000;stroke:#ff0000;" x="391.928595" xlink:href="#m43521b986e" y="284.390556"/>
     <use style="fill:#ff0000;stroke:#ff0000;" x="395.207934" xlink:href="#m43521b986e" y="284.925583"/>
     <use style="fill:#ff0000;stroke:#ff0000;" x="398.487273" xlink:href="#m43521b986e" y="283.079738"/>
    </g>
   </g>
   <g id="line2d_18">
    <defs>
     <path d="M -3 3 
L 3 3 
L 3 -3 
L -3 -3 
z
" id="mc98ff8f3f8" style="stroke:#0000ff;stroke-linejoin:miter;"/>
    </defs>
    <g clip-path="url(#pfc592ce22c)">
     <use style="fill:#0000ff;stroke:#0000ff;stroke-linejoin:miter;" x="73.832727" xlink:href="#mc98ff8f3f8" y="179.150638"/>
     <use style="fill:#0000ff;stroke:#0000ff;stroke-linejoin:miter;" x="77.112066" xlink:href="#mc98ff8f3f8" y="180.728969"/>
     <use style="fill:#0000ff;stroke:#0000ff;stroke-linejoin:miter;" x="80.391405" xlink:href="#mc98ff8f3f8" y="183.832129"/>
     <use style="fill:#0000ff;stroke:#0000ff;stroke-linejoin:miter;" x="83.670744" xlink:href="#mc98ff8f3f8" y="222.996145"/>
     <use style="fill:#0000ff;stroke:#0000ff;stroke-linejoin:miter;" x="86.950083" xlink:href="#mc98ff8f3f8" y="215.3185"/>
     <use style="fill:#0000ff;stroke:#0000ff;stroke-linejoin:miter;" x="90.229421" xlink:href="#mc98ff8f3f8" y="237.441889"/>
     <use style="fill:#0000ff;stroke:#0000ff;stroke-linejoin:miter;" x="93.50876" xlink:href="#mc98ff8f3f8" y="221.096797"/>
     <use style="fill:#0000ff;stroke:#0000ff;stroke-linejoin:miter;" x="96.788099" xlink:href="#mc98ff8f3f8" y="245.708064"/>
     <use style="fill:#0000ff;stroke:#0000ff;stroke-linejoin:miter;" x="100.067438" xlink:href="#mc98ff8f3f8" y="128.456778"/>
     <use style="fill:#0000ff;stroke:#0000ff;stroke-linejoin:miter;" x="103.346777" xlink:href="#mc98ff8f3f8" y="130.035109"/>
     <use style="fill:#0000ff;stroke:#0000ff;stroke-linejoin:miter;" x="106.626116" xlink:href="#mc98ff8f3f8" y="195.629486"/>
     <use style="fill:#0000ff;stroke:#0000ff;stroke-linejoin:miter;" x="109.905455" xlink:href="#mc98ff8f3f8" y="219.946488"/>
     <use style="fill:#0000ff;stroke:#0000ff;stroke-linejoin:miter;" x="113.184793" xlink:href="#mc98ff8f3f8" y="252.877434"/>
     <use style="fill:#0000ff;stroke:#0000ff;stroke-linejoin:miter;" x="116.464132" xlink:href="#mc98ff8f3f8" y="252.823931"/>
     <use style="fill:#0000ff;stroke:#0000ff;stroke-linejoin:miter;" x="119.743471" xlink:href="#mc98ff8f3f8" y="258.923245"/>
     <use style="fill:#0000ff;stroke:#0000ff;stroke-linejoin:miter;" x="123.02281" xlink:href="#mc98ff8f3f8" y="246.082584"/>
     <use style="fill:#0000ff;stroke:#0000ff;stroke-linejoin:miter;" x="126.302149" xlink:href="#mc98ff8f3f8" y="227.75789"/>
     <use style="fill:#0000ff;stroke:#0000ff;stroke-linejoin:miter;" x="129.581488" xlink:href="#mc98ff8f3f8" y="258.842991"/>
     <use style="fill:#0000ff;stroke:#0000ff;stroke-linejoin:miter;" x="132.860826" xlink:href="#mc98ff8f3f8" y="53.205154"/>
     <use style="fill:#0000ff;stroke:#0000ff;stroke-linejoin:miter;" x="136.140165" xlink:href="#mc98ff8f3f8" y="175.539202"/>
     <use style="fill:#0000ff;stroke:#0000ff;stroke-linejoin:miter;" x="139.419504" xlink:href="#mc98ff8f3f8" y="232.733647"/>
     <use style="fill:#0000ff;stroke:#0000ff;stroke-linejoin:miter;" x="142.698843" xlink:href="#mc98ff8f3f8" y="244.718264"/>
     <use style="fill:#0000ff;stroke:#0000ff;stroke-linejoin:miter;" x="145.978182" xlink:href="#mc98ff8f3f8" y="193.462625"/>
     <use style="fill:#0000ff;stroke:#0000ff;stroke-linejoin:miter;" x="149.257521" xlink:href="#mc98ff8f3f8" y="250.924583"/>
     <use style="fill:#0000ff;stroke:#0000ff;stroke-linejoin:miter;" x="152.53686" xlink:href="#mc98ff8f3f8" y="257.692681"/>
     <use style="fill:#0000ff;stroke:#0000ff;stroke-linejoin:miter;" x="155.816198" xlink:href="#mc98ff8f3f8" y="253.01119"/>
     <use style="fill:#0000ff;stroke:#0000ff;stroke-linejoin:miter;" x="159.095537" xlink:href="#mc98ff8f3f8" y="249.078738"/>
     <use style="fill:#0000ff;stroke:#0000ff;stroke-linejoin:miter;" x="162.374876" xlink:href="#mc98ff8f3f8" y="182.253798"/>
     <use style="fill:#0000ff;stroke:#0000ff;stroke-linejoin:miter;" x="165.654215" xlink:href="#mc98ff8f3f8" y="242.096629"/>
     <use style="fill:#0000ff;stroke:#0000ff;stroke-linejoin:miter;" x="168.933554" xlink:href="#mc98ff8f3f8" y="237.6559"/>
     <use style="fill:#0000ff;stroke:#0000ff;stroke-linejoin:miter;" x="172.212893" xlink:href="#mc98ff8f3f8" y="263.524482"/>
     <use style="fill:#0000ff;stroke:#0000ff;stroke-linejoin:miter;" x="175.492231" xlink:href="#mc98ff8f3f8" y="253.091445"/>
     <use style="fill:#0000ff;stroke:#0000ff;stroke-linejoin:miter;" x="178.77157" xlink:href="#mc98ff8f3f8" y="252.60992"/>
     <use style="fill:#0000ff;stroke:#0000ff;stroke-linejoin:miter;" x="182.050909" xlink:href="#mc98ff8f3f8" y="264.434029"/>
     <use style="fill:#0000ff;stroke:#0000ff;stroke-linejoin:miter;" x="185.330248" xlink:href="#mc98ff8f3f8" y="235.649547"/>
     <use style="fill:#0000ff;stroke:#0000ff;stroke-linejoin:miter;" x="188.609587" xlink:href="#mc98ff8f3f8" y="251.620119"/>
     <use style="fill:#0000ff;stroke:#0000ff;stroke-linejoin:miter;" x="191.888926" xlink:href="#mc98ff8f3f8" y="261.518128"/>
     <use style="fill:#0000ff;stroke:#0000ff;stroke-linejoin:miter;" x="195.168264" xlink:href="#mc98ff8f3f8" y="237.094121"/>
     <use style="fill:#0000ff;stroke:#0000ff;stroke-linejoin:miter;" x="198.447603" xlink:href="#mc98ff8f3f8" y="251.165345"/>
     <use style="fill:#0000ff;stroke:#0000ff;stroke-linejoin:miter;" x="201.726942" xlink:href="#mc98ff8f3f8" y="263.577984"/>
     <use style="fill:#0000ff;stroke:#0000ff;stroke-linejoin:miter;" x="205.006281" xlink:href="#mc98ff8f3f8" y="243.407446"/>
     <use style="fill:#0000ff;stroke:#0000ff;stroke-linejoin:miter;" x="208.28562" xlink:href="#mc98ff8f3f8" y="264.220018"/>
     <use style="fill:#0000ff;stroke:#0000ff;stroke-linejoin:miter;" x="211.564959" xlink:href="#mc98ff8f3f8" y="237.84316"/>
     <use style="fill:#0000ff;stroke:#0000ff;stroke-linejoin:miter;" x="214.844298" xlink:href="#mc98ff8f3f8" y="265.129564"/>
     <use style="fill:#0000ff;stroke:#0000ff;stroke-linejoin:miter;" x="218.123636" xlink:href="#mc98ff8f3f8" y="248.062186"/>
     <use style="fill:#0000ff;stroke:#0000ff;stroke-linejoin:miter;" x="221.402975" xlink:href="#mc98ff8f3f8" y="264.139763"/>
     <use style="fill:#0000ff;stroke:#0000ff;stroke-linejoin:miter;" x="224.682314" xlink:href="#mc98ff8f3f8" y="249.667268"/>
     <use style="fill:#0000ff;stroke:#0000ff;stroke-linejoin:miter;" x="227.961653" xlink:href="#mc98ff8f3f8" y="263.256968"/>
     <use style="fill:#0000ff;stroke:#0000ff;stroke-linejoin:miter;" x="231.240992" xlink:href="#mc98ff8f3f8" y="212.58986"/>
     <use style="fill:#0000ff;stroke:#0000ff;stroke-linejoin:miter;" x="234.520331" xlink:href="#mc98ff8f3f8" y="263.765244"/>
     <use style="fill:#0000ff;stroke:#0000ff;stroke-linejoin:miter;" x="237.799669" xlink:href="#mc98ff8f3f8" y="248.463456"/>
     <use style="fill:#0000ff;stroke:#0000ff;stroke-linejoin:miter;" x="241.079008" xlink:href="#mc98ff8f3f8" y="170.616949"/>
     <use style="fill:#0000ff;stroke:#0000ff;stroke-linejoin:miter;" x="244.358347" xlink:href="#mc98ff8f3f8" y="240.197281"/>
     <use style="fill:#0000ff;stroke:#0000ff;stroke-linejoin:miter;" x="247.637686" xlink:href="#mc98ff8f3f8" y="264.300272"/>
     <use style="fill:#0000ff;stroke:#0000ff;stroke-linejoin:miter;" x="250.917025" xlink:href="#mc98ff8f3f8" y="257.639179"/>
     <use style="fill:#0000ff;stroke:#0000ff;stroke-linejoin:miter;" x="254.196364" xlink:href="#mc98ff8f3f8" y="263.738493"/>
     <use style="fill:#0000ff;stroke:#0000ff;stroke-linejoin:miter;" x="257.475702" xlink:href="#mc98ff8f3f8" y="263.069708"/>
     <use style="fill:#0000ff;stroke:#0000ff;stroke-linejoin:miter;" x="260.755041" xlink:href="#mc98ff8f3f8" y="256.783135"/>
     <use style="fill:#0000ff;stroke:#0000ff;stroke-linejoin:miter;" x="264.03438" xlink:href="#mc98ff8f3f8" y="173.934119"/>
     <use style="fill:#0000ff;stroke:#0000ff;stroke-linejoin:miter;" x="267.313719" xlink:href="#mc98ff8f3f8" y="173.853865"/>
     <use style="fill:#0000ff;stroke:#0000ff;stroke-linejoin:miter;" x="270.593058" xlink:href="#mc98ff8f3f8" y="218.368157"/>
     <use style="fill:#0000ff;stroke:#0000ff;stroke-linejoin:miter;" x="273.872397" xlink:href="#mc98ff8f3f8" y="255.606074"/>
     <use style="fill:#0000ff;stroke:#0000ff;stroke-linejoin:miter;" x="277.151736" xlink:href="#mc98ff8f3f8" y="241.294087"/>
     <use style="fill:#0000ff;stroke:#0000ff;stroke-linejoin:miter;" x="280.431074" xlink:href="#mc98ff8f3f8" y="258.25446"/>
     <use style="fill:#0000ff;stroke:#0000ff;stroke-linejoin:miter;" x="283.710413" xlink:href="#mc98ff8f3f8" y="262.079907"/>
     <use style="fill:#0000ff;stroke:#0000ff;stroke-linejoin:miter;" x="286.989752" xlink:href="#mc98ff8f3f8" y="239.822762"/>
     <use style="fill:#0000ff;stroke:#0000ff;stroke-linejoin:miter;" x="290.269091" xlink:href="#mc98ff8f3f8" y="261.758891"/>
     <use style="fill:#0000ff;stroke:#0000ff;stroke-linejoin:miter;" x="293.54843" xlink:href="#mc98ff8f3f8" y="258.602228"/>
     <use style="fill:#0000ff;stroke:#0000ff;stroke-linejoin:miter;" x="296.827769" xlink:href="#mc98ff8f3f8" y="251.272351"/>
     <use style="fill:#0000ff;stroke:#0000ff;stroke-linejoin:miter;" x="300.107107" xlink:href="#mc98ff8f3f8" y="258.709234"/>
     <use style="fill:#0000ff;stroke:#0000ff;stroke-linejoin:miter;" x="303.386446" xlink:href="#mc98ff8f3f8" y="257.879941"/>
     <use style="fill:#0000ff;stroke:#0000ff;stroke-linejoin:miter;" x="306.665785" xlink:href="#mc98ff8f3f8" y="255.418814"/>
     <use style="fill:#0000ff;stroke:#0000ff;stroke-linejoin:miter;" x="309.945124" xlink:href="#mc98ff8f3f8" y="243.781965"/>
     <use style="fill:#0000ff;stroke:#0000ff;stroke-linejoin:miter;" x="313.224463" xlink:href="#mc98ff8f3f8" y="207.34659"/>
     <use style="fill:#0000ff;stroke:#0000ff;stroke-linejoin:miter;" x="316.503802" xlink:href="#mc98ff8f3f8" y="248.035434"/>
     <use style="fill:#0000ff;stroke:#0000ff;stroke-linejoin:miter;" x="319.78314" xlink:href="#mc98ff8f3f8" y="255.659577"/>
     <use style="fill:#0000ff;stroke:#0000ff;stroke-linejoin:miter;" x="323.062479" xlink:href="#mc98ff8f3f8" y="259.324516"/>
     <use style="fill:#0000ff;stroke:#0000ff;stroke-linejoin:miter;" x="326.341818" xlink:href="#mc98ff8f3f8" y="251.513113"/>
     <use style="fill:#0000ff;stroke:#0000ff;stroke-linejoin:miter;" x="329.621157" xlink:href="#mc98ff8f3f8" y="179.016881"/>
     <use style="fill:#0000ff;stroke:#0000ff;stroke-linejoin:miter;" x="332.900496" xlink:href="#mc98ff8f3f8" y="256.141102"/>
     <use style="fill:#0000ff;stroke:#0000ff;stroke-linejoin:miter;" x="336.179835" xlink:href="#mc98ff8f3f8" y="225.02925"/>
     <use style="fill:#0000ff;stroke:#0000ff;stroke-linejoin:miter;" x="339.459174" xlink:href="#mc98ff8f3f8" y="243.273689"/>
     <use style="fill:#0000ff;stroke:#0000ff;stroke-linejoin:miter;" x="342.738512" xlink:href="#mc98ff8f3f8" y="251.673622"/>
     <use style="fill:#0000ff;stroke:#0000ff;stroke-linejoin:miter;" x="346.017851" xlink:href="#mc98ff8f3f8" y="242.952673"/>
     <use style="fill:#0000ff;stroke:#0000ff;stroke-linejoin:miter;" x="349.29719" xlink:href="#mc98ff8f3f8" y="247.206142"/>
     <use style="fill:#0000ff;stroke:#0000ff;stroke-linejoin:miter;" x="352.576529" xlink:href="#mc98ff8f3f8" y="250.630318"/>
     <use style="fill:#0000ff;stroke:#0000ff;stroke-linejoin:miter;" x="355.855868" xlink:href="#mc98ff8f3f8" y="258.468471"/>
     <use style="fill:#0000ff;stroke:#0000ff;stroke-linejoin:miter;" x="359.135207" xlink:href="#mc98ff8f3f8" y="215.612765"/>
     <use style="fill:#0000ff;stroke:#0000ff;stroke-linejoin:miter;" x="362.414545" xlink:href="#mc98ff8f3f8" y="259.645532"/>
     <use style="fill:#0000ff;stroke:#0000ff;stroke-linejoin:miter;" x="365.693884" xlink:href="#mc98ff8f3f8" y="237.682651"/>
     <use style="fill:#0000ff;stroke:#0000ff;stroke-linejoin:miter;" x="368.973223" xlink:href="#mc98ff8f3f8" y="259.565278"/>
     <use style="fill:#0000ff;stroke:#0000ff;stroke-linejoin:miter;" x="372.252562" xlink:href="#mc98ff8f3f8" y="222.808886"/>
     <use style="fill:#0000ff;stroke:#0000ff;stroke-linejoin:miter;" x="375.531901" xlink:href="#mc98ff8f3f8" y="259.511775"/>
     <use style="fill:#0000ff;stroke:#0000ff;stroke-linejoin:miter;" x="378.81124" xlink:href="#mc98ff8f3f8" y="247.232893"/>
     <use style="fill:#0000ff;stroke:#0000ff;stroke-linejoin:miter;" x="382.090579" xlink:href="#mc98ff8f3f8" y="262.855697"/>
     <use style="fill:#0000ff;stroke:#0000ff;stroke-linejoin:miter;" x="385.369917" xlink:href="#mc98ff8f3f8" y="258.682482"/>
     <use style="fill:#0000ff;stroke:#0000ff;stroke-linejoin:miter;" x="388.649256" xlink:href="#mc98ff8f3f8" y="235.729801"/>
     <use style="fill:#0000ff;stroke:#0000ff;stroke-linejoin:miter;" x="391.928595" xlink:href="#mc98ff8f3f8" y="252.957688"/>
     <use style="fill:#0000ff;stroke:#0000ff;stroke-linejoin:miter;" x="395.207934" xlink:href="#mc98ff8f3f8" y="249.132241"/>
     <use style="fill:#0000ff;stroke:#0000ff;stroke-linejoin:miter;" x="398.487273" xlink:href="#mc98ff8f3f8" y="251.887633"/>
    </g>
   </g>
   <g id="patch_3">
    <path d="M 57.6 307.584 
L 57.6 41.472 
" style="fill:none;stroke:#000000;stroke-linecap:square;stroke-linejoin:miter;stroke-width:0.8;"/>
   </g>
   <g id="patch_4">
    <path d="M 414.72 307.584 
L 414.72 41.472 
" style="fill:none;stroke:#000000;stroke-linecap:square;stroke-linejoin:miter;stroke-width:0.8;"/>
   </g>
   <g id="patch_5">
    <path d="M 57.6 307.584 
L 414.72 307.584 
" style="fill:none;stroke:#000000;stroke-linecap:square;stroke-linejoin:miter;stroke-width:0.8;"/>
   </g>
   <g id="patch_6">
    <path d="M 57.6 41.472 
L 414.72 41.472 
" style="fill:none;stroke:#000000;stroke-linecap:square;stroke-linejoin:miter;stroke-width:0.8;"/>
   </g>
   <g id="legend_1">
    <g id="patch_7">
     <path d="M 350.279375 78.82825 
L 407.72 78.82825 
Q 409.72 78.82825 409.72 76.82825 
L 409.72 48.472 
Q 409.72 46.472 407.72 46.472 
L 350.279375 46.472 
Q 348.279375 46.472 348.279375 48.472 
L 348.279375 76.82825 
Q 348.279375 78.82825 350.279375 78.82825 
z
" style="fill:#ffffff;opacity:0.8;stroke:#cccccc;stroke-linejoin:miter;"/>
    </g>
    <g id="line2d_19"/>
    <g id="line2d_20">
     <g>
      <use style="fill:#ff0000;stroke:#ff0000;" x="362.279375" xlink:href="#m43521b986e" y="54.570437"/>
     </g>
    </g>
    <g id="text_19">
     <!-- Train -->
     <defs>
      <path d="M -0.296875 72.90625 
L 61.375 72.90625 
L 61.375 64.59375 
L 35.5 64.59375 
L 35.5 0 
L 25.59375 0 
L 25.59375 64.59375 
L -0.296875 64.59375 
z
" id="DejaVuSans-54"/>
      <path d="M 41.109375 46.296875 
Q 39.59375 47.171875 37.8125 47.578125 
Q 36.03125 48 33.890625 48 
Q 26.265625 48 22.1875 43.046875 
Q 18.109375 38.09375 18.109375 28.8125 
L 18.109375 0 
L 9.078125 0 
L 9.078125 54.6875 
L 18.109375 54.6875 
L 18.109375 46.1875 
Q 20.953125 51.171875 25.484375 53.578125 
Q 30.03125 56 36.53125 56 
Q 37.453125 56 38.578125 55.875 
Q 39.703125 55.765625 41.0625 55.515625 
z
" id="DejaVuSans-72"/>
      <path d="M 34.28125 27.484375 
Q 23.390625 27.484375 19.1875 25 
Q 14.984375 22.515625 14.984375 16.5 
Q 14.984375 11.71875 18.140625 8.90625 
Q 21.296875 6.109375 26.703125 6.109375 
Q 34.1875 6.109375 38.703125 11.40625 
Q 43.21875 16.703125 43.21875 25.484375 
L 43.21875 27.484375 
z
M 52.203125 31.203125 
L 52.203125 0 
L 43.21875 0 
L 43.21875 8.296875 
Q 40.140625 3.328125 35.546875 0.953125 
Q 30.953125 -1.421875 24.3125 -1.421875 
Q 15.921875 -1.421875 10.953125 3.296875 
Q 6 8.015625 6 15.921875 
Q 6 25.140625 12.171875 29.828125 
Q 18.359375 34.515625 30.609375 34.515625 
L 43.21875 34.515625 
L 43.21875 35.40625 
Q 43.21875 41.609375 39.140625 45 
Q 35.0625 48.390625 27.6875 48.390625 
Q 23 48.390625 18.546875 47.265625 
Q 14.109375 46.140625 10.015625 43.890625 
L 10.015625 52.203125 
Q 14.9375 54.109375 19.578125 55.046875 
Q 24.21875 56 28.609375 56 
Q 40.484375 56 46.34375 49.84375 
Q 52.203125 43.703125 52.203125 31.203125 
z
" id="DejaVuSans-61"/>
      <path d="M 9.421875 54.6875 
L 18.40625 54.6875 
L 18.40625 0 
L 9.421875 0 
z
M 9.421875 75.984375 
L 18.40625 75.984375 
L 18.40625 64.59375 
L 9.421875 64.59375 
z
" id="DejaVuSans-69"/>
      <path d="M 54.890625 33.015625 
L 54.890625 0 
L 45.90625 0 
L 45.90625 32.71875 
Q 45.90625 40.484375 42.875 44.328125 
Q 39.84375 48.1875 33.796875 48.1875 
Q 26.515625 48.1875 22.3125 43.546875 
Q 18.109375 38.921875 18.109375 30.90625 
L 18.109375 0 
L 9.078125 0 
L 9.078125 54.6875 
L 18.109375 54.6875 
L 18.109375 46.1875 
Q 21.34375 51.125 25.703125 53.5625 
Q 30.078125 56 35.796875 56 
Q 45.21875 56 50.046875 50.171875 
Q 54.890625 44.34375 54.890625 33.015625 
z
" id="DejaVuSans-6e"/>
     </defs>
     <g transform="translate(380.279375 58.070437)scale(0.1 -0.1)">
      <use xlink:href="#DejaVuSans-54"/>
      <use x="60.865234" xlink:href="#DejaVuSans-72"/>
      <use x="101.978516" xlink:href="#DejaVuSans-61"/>
      <use x="163.257812" xlink:href="#DejaVuSans-69"/>
      <use x="191.041016" xlink:href="#DejaVuSans-6e"/>
     </g>
    </g>
    <g id="line2d_21"/>
    <g id="line2d_22">
     <g>
      <use style="fill:#0000ff;stroke:#0000ff;stroke-linejoin:miter;" x="362.279375" xlink:href="#mc98ff8f3f8" y="69.248562"/>
     </g>
    </g>
    <g id="text_20">
     <!-- Eval -->
     <defs>
      <path d="M 2.984375 54.6875 
L 12.5 54.6875 
L 29.59375 8.796875 
L 46.6875 54.6875 
L 56.203125 54.6875 
L 35.6875 0 
L 23.484375 0 
z
" id="DejaVuSans-76"/>
      <path d="M 9.421875 75.984375 
L 18.40625 75.984375 
L 18.40625 0 
L 9.421875 0 
z
" id="DejaVuSans-6c"/>
     </defs>
     <g transform="translate(380.279375 72.748562)scale(0.1 -0.1)">
      <use xlink:href="#DejaVuSans-45"/>
      <use x="63.183594" xlink:href="#DejaVuSans-76"/>
      <use x="122.363281" xlink:href="#DejaVuSans-61"/>
      <use x="183.642578" xlink:href="#DejaVuSans-6c"/>
     </g>
    </g>
   </g>
  </g>
 </g>
 <defs>
  <clipPath id="pfc592ce22c">
   <rect height="266.112" width="357.12" x="57.6" y="41.472"/>
  </clipPath>
 </defs>
</svg>
