<?xml version="1.0" encoding="utf-8" standalone="no"?>
<!DOCTYPE svg PUBLIC "-//W3C//DTD SVG 1.1//EN"
  "http://www.w3.org/Graphics/SVG/1.1/DTD/svg11.dtd">
<!-- Created with matplotlib (http://matplotlib.org/) -->
<svg height="345pt" version="1.1" viewBox="0 0 460 345" width="460pt" xmlns="http://www.w3.org/2000/svg" xmlns:xlink="http://www.w3.org/1999/xlink">
 <defs>
  <style type="text/css">
*{stroke-linecap:butt;stroke-linejoin:round;}
  </style>
 </defs>
 <g id="figure_1">
  <g id="patch_1">
   <path d="M 0 345.6 
L 460.8 345.6 
L 460.8 0 
L 0 0 
z
" style="fill:#ffffff;"/>
  </g>
  <g id="axes_1">
   <g id="patch_2">
    <path d="M 57.6 307.584 
L 414.72 307.584 
L 414.72 41.472 
L 57.6 41.472 
z
" style="fill:#ffffff;"/>
   </g>
   <g id="matplotlib.axis_1">
    <g id="xtick_1">
     <g id="line2d_1">
      <defs>
       <path d="M 0 0 
L 0 3.5 
" id="mbe6422512f" style="stroke:#000000;stroke-width:0.8;"/>
      </defs>
      <g>
       <use style="stroke:#000000;stroke-width:0.8;" x="71.104538" xlink:href="#mbe6422512f" y="307.584"/>
      </g>
     </g>
     <g id="text_1">
      <!-- 0 -->
      <defs>
       <path d="M 31.78125 66.40625 
Q 24.171875 66.40625 20.328125 58.90625 
Q 16.5 51.421875 16.5 36.375 
Q 16.5 21.390625 20.328125 13.890625 
Q 24.171875 6.390625 31.78125 6.390625 
Q 39.453125 6.390625 43.28125 13.890625 
Q 47.125 21.390625 47.125 36.375 
Q 47.125 51.421875 43.28125 58.90625 
Q 39.453125 66.40625 31.78125 66.40625 
z
M 31.78125 74.21875 
Q 44.046875 74.21875 50.515625 64.515625 
Q 56.984375 54.828125 56.984375 36.375 
Q 56.984375 17.96875 50.515625 8.265625 
Q 44.046875 -1.421875 31.78125 -1.421875 
Q 19.53125 -1.421875 13.0625 8.265625 
Q 6.59375 17.96875 6.59375 36.375 
Q 6.59375 54.828125 13.0625 64.515625 
Q 19.53125 74.21875 31.78125 74.21875 
z
" id="DejaVuSans-30"/>
      </defs>
      <g transform="translate(67.923288 322.182437)scale(0.1 -0.1)">
       <use xlink:href="#DejaVuSans-30"/>
      </g>
     </g>
    </g>
    <g id="xtick_2">
     <g id="line2d_2">
      <g>
       <use style="stroke:#000000;stroke-width:0.8;" x="125.668327" xlink:href="#mbe6422512f" y="307.584"/>
      </g>
     </g>
     <g id="text_2">
      <!-- 20 -->
      <defs>
       <path d="M 19.1875 8.296875 
L 53.609375 8.296875 
L 53.609375 0 
L 7.328125 0 
L 7.328125 8.296875 
Q 12.9375 14.109375 22.625 23.890625 
Q 32.328125 33.6875 34.8125 36.53125 
Q 39.546875 41.84375 41.421875 45.53125 
Q 43.3125 49.21875 43.3125 52.78125 
Q 43.3125 58.59375 39.234375 62.25 
Q 35.15625 65.921875 28.609375 65.921875 
Q 23.96875 65.921875 18.8125 64.3125 
Q 13.671875 62.703125 7.8125 59.421875 
L 7.8125 69.390625 
Q 13.765625 71.78125 18.9375 73 
Q 24.125 74.21875 28.421875 74.21875 
Q 39.75 74.21875 46.484375 68.546875 
Q 53.21875 62.890625 53.21875 53.421875 
Q 53.21875 48.921875 51.53125 44.890625 
Q 49.859375 40.875 45.40625 35.40625 
Q 44.1875 33.984375 37.640625 27.21875 
Q 31.109375 20.453125 19.1875 8.296875 
z
" id="DejaVuSans-32"/>
      </defs>
      <g transform="translate(119.305827 322.182437)scale(0.1 -0.1)">
       <use xlink:href="#DejaVuSans-32"/>
       <use x="63.623047" xlink:href="#DejaVuSans-30"/>
      </g>
     </g>
    </g>
    <g id="xtick_3">
     <g id="line2d_3">
      <g>
       <use style="stroke:#000000;stroke-width:0.8;" x="180.232116" xlink:href="#mbe6422512f" y="307.584"/>
      </g>
     </g>
     <g id="text_3">
      <!-- 40 -->
      <defs>
       <path d="M 37.796875 64.3125 
L 12.890625 25.390625 
L 37.796875 25.390625 
z
M 35.203125 72.90625 
L 47.609375 72.90625 
L 47.609375 25.390625 
L 58.015625 25.390625 
L 58.015625 17.1875 
L 47.609375 17.1875 
L 47.609375 0 
L 37.796875 0 
L 37.796875 17.1875 
L 4.890625 17.1875 
L 4.890625 26.703125 
z
" id="DejaVuSans-34"/>
      </defs>
      <g transform="translate(173.869616 322.182437)scale(0.1 -0.1)">
       <use xlink:href="#DejaVuSans-34"/>
       <use x="63.623047" xlink:href="#DejaVuSans-30"/>
      </g>
     </g>
    </g>
    <g id="xtick_4">
     <g id="line2d_4">
      <g>
       <use style="stroke:#000000;stroke-width:0.8;" x="234.795905" xlink:href="#mbe6422512f" y="307.584"/>
      </g>
     </g>
     <g id="text_4">
      <!-- 60 -->
      <defs>
       <path d="M 33.015625 40.375 
Q 26.375 40.375 22.484375 35.828125 
Q 18.609375 31.296875 18.609375 23.390625 
Q 18.609375 15.53125 22.484375 10.953125 
Q 26.375 6.390625 33.015625 6.390625 
Q 39.65625 6.390625 43.53125 10.953125 
Q 47.40625 15.53125 47.40625 23.390625 
Q 47.40625 31.296875 43.53125 35.828125 
Q 39.65625 40.375 33.015625 40.375 
z
M 52.59375 71.296875 
L 52.59375 62.3125 
Q 48.875 64.0625 45.09375 64.984375 
Q 41.3125 65.921875 37.59375 65.921875 
Q 27.828125 65.921875 22.671875 59.328125 
Q 17.53125 52.734375 16.796875 39.40625 
Q 19.671875 43.65625 24.015625 45.921875 
Q 28.375 48.1875 33.59375 48.1875 
Q 44.578125 48.1875 50.953125 41.515625 
Q 57.328125 34.859375 57.328125 23.390625 
Q 57.328125 12.15625 50.6875 5.359375 
Q 44.046875 -1.421875 33.015625 -1.421875 
Q 20.359375 -1.421875 13.671875 8.265625 
Q 6.984375 17.96875 6.984375 36.375 
Q 6.984375 53.65625 15.1875 63.9375 
Q 23.390625 74.21875 37.203125 74.21875 
Q 40.921875 74.21875 44.703125 73.484375 
Q 48.484375 72.75 52.59375 71.296875 
z
" id="DejaVuSans-36"/>
      </defs>
      <g transform="translate(228.433405 322.182437)scale(0.1 -0.1)">
       <use xlink:href="#DejaVuSans-36"/>
       <use x="63.623047" xlink:href="#DejaVuSans-30"/>
      </g>
     </g>
    </g>
    <g id="xtick_5">
     <g id="line2d_5">
      <g>
       <use style="stroke:#000000;stroke-width:0.8;" x="289.359694" xlink:href="#mbe6422512f" y="307.584"/>
      </g>
     </g>
     <g id="text_5">
      <!-- 80 -->
      <defs>
       <path d="M 31.78125 34.625 
Q 24.75 34.625 20.71875 30.859375 
Q 16.703125 27.09375 16.703125 20.515625 
Q 16.703125 13.921875 20.71875 10.15625 
Q 24.75 6.390625 31.78125 6.390625 
Q 38.8125 6.390625 42.859375 10.171875 
Q 46.921875 13.96875 46.921875 20.515625 
Q 46.921875 27.09375 42.890625 30.859375 
Q 38.875 34.625 31.78125 34.625 
z
M 21.921875 38.8125 
Q 15.578125 40.375 12.03125 44.71875 
Q 8.5 49.078125 8.5 55.328125 
Q 8.5 64.0625 14.71875 69.140625 
Q 20.953125 74.21875 31.78125 74.21875 
Q 42.671875 74.21875 48.875 69.140625 
Q 55.078125 64.0625 55.078125 55.328125 
Q 55.078125 49.078125 51.53125 44.71875 
Q 48 40.375 41.703125 38.8125 
Q 48.828125 37.15625 52.796875 32.3125 
Q 56.78125 27.484375 56.78125 20.515625 
Q 56.78125 9.90625 50.3125 4.234375 
Q 43.84375 -1.421875 31.78125 -1.421875 
Q 19.734375 -1.421875 13.25 4.234375 
Q 6.78125 9.90625 6.78125 20.515625 
Q 6.78125 27.484375 10.78125 32.3125 
Q 14.796875 37.15625 21.921875 38.8125 
z
M 18.3125 54.390625 
Q 18.3125 48.734375 21.84375 45.5625 
Q 25.390625 42.390625 31.78125 42.390625 
Q 38.140625 42.390625 41.71875 45.5625 
Q 45.3125 48.734375 45.3125 54.390625 
Q 45.3125 60.0625 41.71875 63.234375 
Q 38.140625 66.40625 31.78125 66.40625 
Q 25.390625 66.40625 21.84375 63.234375 
Q 18.3125 60.0625 18.3125 54.390625 
z
" id="DejaVuSans-38"/>
      </defs>
      <g transform="translate(282.997194 322.182437)scale(0.1 -0.1)">
       <use xlink:href="#DejaVuSans-38"/>
       <use x="63.623047" xlink:href="#DejaVuSans-30"/>
      </g>
     </g>
    </g>
    <g id="xtick_6">
     <g id="line2d_6">
      <g>
       <use style="stroke:#000000;stroke-width:0.8;" x="343.923484" xlink:href="#mbe6422512f" y="307.584"/>
      </g>
     </g>
     <g id="text_6">
      <!-- 100 -->
      <defs>
       <path d="M 12.40625 8.296875 
L 28.515625 8.296875 
L 28.515625 63.921875 
L 10.984375 60.40625 
L 10.984375 69.390625 
L 28.421875 72.90625 
L 38.28125 72.90625 
L 38.28125 8.296875 
L 54.390625 8.296875 
L 54.390625 0 
L 12.40625 0 
z
" id="DejaVuSans-31"/>
      </defs>
      <g transform="translate(334.379734 322.182437)scale(0.1 -0.1)">
       <use xlink:href="#DejaVuSans-31"/>
       <use x="63.623047" xlink:href="#DejaVuSans-30"/>
       <use x="127.246094" xlink:href="#DejaVuSans-30"/>
      </g>
     </g>
    </g>
    <g id="xtick_7">
     <g id="line2d_7">
      <g>
       <use style="stroke:#000000;stroke-width:0.8;" x="398.487273" xlink:href="#mbe6422512f" y="307.584"/>
      </g>
     </g>
     <g id="text_7">
      <!-- 120 -->
      <g transform="translate(388.943523 322.182437)scale(0.1 -0.1)">
       <use xlink:href="#DejaVuSans-31"/>
       <use x="63.623047" xlink:href="#DejaVuSans-32"/>
       <use x="127.246094" xlink:href="#DejaVuSans-30"/>
      </g>
     </g>
    </g>
    <g id="text_8">
     <!-- Epochs -->
     <defs>
      <path d="M 9.8125 72.90625 
L 55.90625 72.90625 
L 55.90625 64.59375 
L 19.671875 64.59375 
L 19.671875 43.015625 
L 54.390625 43.015625 
L 54.390625 34.71875 
L 19.671875 34.71875 
L 19.671875 8.296875 
L 56.78125 8.296875 
L 56.78125 0 
L 9.8125 0 
z
" id="DejaVuSans-45"/>
      <path d="M 18.109375 8.203125 
L 18.109375 -20.796875 
L 9.078125 -20.796875 
L 9.078125 54.6875 
L 18.109375 54.6875 
L 18.109375 46.390625 
Q 20.953125 51.265625 25.265625 53.625 
Q 29.59375 56 35.59375 56 
Q 45.5625 56 51.78125 48.09375 
Q 58.015625 40.1875 58.015625 27.296875 
Q 58.015625 14.40625 51.78125 6.484375 
Q 45.5625 -1.421875 35.59375 -1.421875 
Q 29.59375 -1.421875 25.265625 0.953125 
Q 20.953125 3.328125 18.109375 8.203125 
z
M 48.6875 27.296875 
Q 48.6875 37.203125 44.609375 42.84375 
Q 40.53125 48.484375 33.40625 48.484375 
Q 26.265625 48.484375 22.1875 42.84375 
Q 18.109375 37.203125 18.109375 27.296875 
Q 18.109375 17.390625 22.1875 11.75 
Q 26.265625 6.109375 33.40625 6.109375 
Q 40.53125 6.109375 44.609375 11.75 
Q 48.6875 17.390625 48.6875 27.296875 
z
" id="DejaVuSans-70"/>
      <path d="M 30.609375 48.390625 
Q 23.390625 48.390625 19.1875 42.75 
Q 14.984375 37.109375 14.984375 27.296875 
Q 14.984375 17.484375 19.15625 11.84375 
Q 23.34375 6.203125 30.609375 6.203125 
Q 37.796875 6.203125 41.984375 11.859375 
Q 46.1875 17.53125 46.1875 27.296875 
Q 46.1875 37.015625 41.984375 42.703125 
Q 37.796875 48.390625 30.609375 48.390625 
z
M 30.609375 56 
Q 42.328125 56 49.015625 48.375 
Q 55.71875 40.765625 55.71875 27.296875 
Q 55.71875 13.875 49.015625 6.21875 
Q 42.328125 -1.421875 30.609375 -1.421875 
Q 18.84375 -1.421875 12.171875 6.21875 
Q 5.515625 13.875 5.515625 27.296875 
Q 5.515625 40.765625 12.171875 48.375 
Q 18.84375 56 30.609375 56 
z
" id="DejaVuSans-6f"/>
      <path d="M 48.78125 52.59375 
L 48.78125 44.1875 
Q 44.96875 46.296875 41.140625 47.34375 
Q 37.3125 48.390625 33.40625 48.390625 
Q 24.65625 48.390625 19.8125 42.84375 
Q 14.984375 37.3125 14.984375 27.296875 
Q 14.984375 17.28125 19.8125 11.734375 
Q 24.65625 6.203125 33.40625 6.203125 
Q 37.3125 6.203125 41.140625 7.25 
Q 44.96875 8.296875 48.78125 10.40625 
L 48.78125 2.09375 
Q 45.015625 0.34375 40.984375 -0.53125 
Q 36.96875 -1.421875 32.421875 -1.421875 
Q 20.0625 -1.421875 12.78125 6.34375 
Q 5.515625 14.109375 5.515625 27.296875 
Q 5.515625 40.671875 12.859375 48.328125 
Q 20.21875 56 33.015625 56 
Q 37.15625 56 41.109375 55.140625 
Q 45.0625 54.296875 48.78125 52.59375 
z
" id="DejaVuSans-63"/>
      <path d="M 54.890625 33.015625 
L 54.890625 0 
L 45.90625 0 
L 45.90625 32.71875 
Q 45.90625 40.484375 42.875 44.328125 
Q 39.84375 48.1875 33.796875 48.1875 
Q 26.515625 48.1875 22.3125 43.546875 
Q 18.109375 38.921875 18.109375 30.90625 
L 18.109375 0 
L 9.078125 0 
L 9.078125 75.984375 
L 18.109375 75.984375 
L 18.109375 46.1875 
Q 21.34375 51.125 25.703125 53.5625 
Q 30.078125 56 35.796875 56 
Q 45.21875 56 50.046875 50.171875 
Q 54.890625 44.34375 54.890625 33.015625 
z
" id="DejaVuSans-68"/>
      <path d="M 44.28125 53.078125 
L 44.28125 44.578125 
Q 40.484375 46.53125 36.375 47.5 
Q 32.28125 48.484375 27.875 48.484375 
Q 21.1875 48.484375 17.84375 46.4375 
Q 14.5 44.390625 14.5 40.28125 
Q 14.5 37.15625 16.890625 35.375 
Q 19.28125 33.59375 26.515625 31.984375 
L 29.59375 31.296875 
Q 39.15625 29.25 43.1875 25.515625 
Q 47.21875 21.78125 47.21875 15.09375 
Q 47.21875 7.46875 41.1875 3.015625 
Q 35.15625 -1.421875 24.609375 -1.421875 
Q 20.21875 -1.421875 15.453125 -0.5625 
Q 10.6875 0.296875 5.421875 2 
L 5.421875 11.28125 
Q 10.40625 8.6875 15.234375 7.390625 
Q 20.0625 6.109375 24.8125 6.109375 
Q 31.15625 6.109375 34.5625 8.28125 
Q 37.984375 10.453125 37.984375 14.40625 
Q 37.984375 18.0625 35.515625 20.015625 
Q 33.0625 21.96875 24.703125 23.78125 
L 21.578125 24.515625 
Q 13.234375 26.265625 9.515625 29.90625 
Q 5.8125 33.546875 5.8125 39.890625 
Q 5.8125 47.609375 11.28125 51.796875 
Q 16.75 56 26.8125 56 
Q 31.78125 56 36.171875 55.265625 
Q 40.578125 54.546875 44.28125 53.078125 
z
" id="DejaVuSans-73"/>
     </defs>
     <g transform="translate(218.244375 335.860562)scale(0.1 -0.1)">
      <use xlink:href="#DejaVuSans-45"/>
      <use x="63.183594" xlink:href="#DejaVuSans-70"/>
      <use x="126.660156" xlink:href="#DejaVuSans-6f"/>
      <use x="187.841797" xlink:href="#DejaVuSans-63"/>
      <use x="242.822266" xlink:href="#DejaVuSans-68"/>
      <use x="306.201172" xlink:href="#DejaVuSans-73"/>
     </g>
    </g>
   </g>
   <g id="matplotlib.axis_2">
    <g id="ytick_1">
     <g id="line2d_8">
      <defs>
       <path d="M 0 0 
L -3.5 0 
" id="m4afc95f62a" style="stroke:#000000;stroke-width:0.8;"/>
      </defs>
      <g>
       <use style="stroke:#000000;stroke-width:0.8;" x="57.6" xlink:href="#m4afc95f62a" y="307.584"/>
      </g>
     </g>
     <g id="text_9">
      <!-- 0.000 -->
      <defs>
       <path d="M 10.6875 12.40625 
L 21 12.40625 
L 21 0 
L 10.6875 0 
z
" id="DejaVuSans-2e"/>
      </defs>
      <g transform="translate(21.971875 311.383219)scale(0.1 -0.1)">
       <use xlink:href="#DejaVuSans-30"/>
       <use x="63.623047" xlink:href="#DejaVuSans-2e"/>
       <use x="95.410156" xlink:href="#DejaVuSans-30"/>
       <use x="159.033203" xlink:href="#DejaVuSans-30"/>
       <use x="222.65625" xlink:href="#DejaVuSans-30"/>
      </g>
     </g>
    </g>
    <g id="ytick_2">
     <g id="line2d_9">
      <g>
       <use style="stroke:#000000;stroke-width:0.8;" x="57.6" xlink:href="#m4afc95f62a" y="279.348254"/>
      </g>
     </g>
     <g id="text_10">
      <!-- 0.586 -->
      <defs>
       <path d="M 10.796875 72.90625 
L 49.515625 72.90625 
L 49.515625 64.59375 
L 19.828125 64.59375 
L 19.828125 46.734375 
Q 21.96875 47.46875 24.109375 47.828125 
Q 26.265625 48.1875 28.421875 48.1875 
Q 40.625 48.1875 47.75 41.5 
Q 54.890625 34.8125 54.890625 23.390625 
Q 54.890625 11.625 47.5625 5.09375 
Q 40.234375 -1.421875 26.90625 -1.421875 
Q 22.3125 -1.421875 17.546875 -0.640625 
Q 12.796875 0.140625 7.71875 1.703125 
L 7.71875 11.625 
Q 12.109375 9.234375 16.796875 8.0625 
Q 21.484375 6.890625 26.703125 6.890625 
Q 35.15625 6.890625 40.078125 11.328125 
Q 45.015625 15.765625 45.015625 23.390625 
Q 45.015625 31 40.078125 35.4375 
Q 35.15625 39.890625 26.703125 39.890625 
Q 22.75 39.890625 18.8125 39.015625 
Q 14.890625 38.140625 10.796875 36.28125 
z
" id="DejaVuSans-35"/>
      </defs>
      <g transform="translate(21.971875 283.147473)scale(0.1 -0.1)">
       <use xlink:href="#DejaVuSans-30"/>
       <use x="63.623047" xlink:href="#DejaVuSans-2e"/>
       <use x="95.410156" xlink:href="#DejaVuSans-35"/>
       <use x="159.033203" xlink:href="#DejaVuSans-38"/>
       <use x="222.65625" xlink:href="#DejaVuSans-36"/>
      </g>
     </g>
    </g>
    <g id="ytick_3">
     <g id="line2d_10">
      <g>
       <use style="stroke:#000000;stroke-width:0.8;" x="57.6" xlink:href="#m4afc95f62a" y="251.112508"/>
      </g>
     </g>
     <g id="text_11">
      <!-- 1.172 -->
      <defs>
       <path d="M 8.203125 72.90625 
L 55.078125 72.90625 
L 55.078125 68.703125 
L 28.609375 0 
L 18.3125 0 
L 43.21875 64.59375 
L 8.203125 64.59375 
z
" id="DejaVuSans-37"/>
      </defs>
      <g transform="translate(21.971875 254.911726)scale(0.1 -0.1)">
       <use xlink:href="#DejaVuSans-31"/>
       <use x="63.623047" xlink:href="#DejaVuSans-2e"/>
       <use x="95.410156" xlink:href="#DejaVuSans-31"/>
       <use x="159.033203" xlink:href="#DejaVuSans-37"/>
       <use x="222.65625" xlink:href="#DejaVuSans-32"/>
      </g>
     </g>
    </g>
    <g id="ytick_4">
     <g id="line2d_11">
      <g>
       <use style="stroke:#000000;stroke-width:0.8;" x="57.6" xlink:href="#m4afc95f62a" y="222.876761"/>
      </g>
     </g>
     <g id="text_12">
      <!-- 1.757 -->
      <g transform="translate(21.971875 226.67598)scale(0.1 -0.1)">
       <use xlink:href="#DejaVuSans-31"/>
       <use x="63.623047" xlink:href="#DejaVuSans-2e"/>
       <use x="95.410156" xlink:href="#DejaVuSans-37"/>
       <use x="159.033203" xlink:href="#DejaVuSans-35"/>
       <use x="222.65625" xlink:href="#DejaVuSans-37"/>
      </g>
     </g>
    </g>
    <g id="ytick_5">
     <g id="line2d_12">
      <g>
       <use style="stroke:#000000;stroke-width:0.8;" x="57.6" xlink:href="#m4afc95f62a" y="194.641015"/>
      </g>
     </g>
     <g id="text_13">
      <!-- 2.343 -->
      <defs>
       <path d="M 40.578125 39.3125 
Q 47.65625 37.796875 51.625 33 
Q 55.609375 28.21875 55.609375 21.1875 
Q 55.609375 10.40625 48.1875 4.484375 
Q 40.765625 -1.421875 27.09375 -1.421875 
Q 22.515625 -1.421875 17.65625 -0.515625 
Q 12.796875 0.390625 7.625 2.203125 
L 7.625 11.71875 
Q 11.71875 9.328125 16.59375 8.109375 
Q 21.484375 6.890625 26.8125 6.890625 
Q 36.078125 6.890625 40.9375 10.546875 
Q 45.796875 14.203125 45.796875 21.1875 
Q 45.796875 27.640625 41.28125 31.265625 
Q 36.765625 34.90625 28.71875 34.90625 
L 20.21875 34.90625 
L 20.21875 43.015625 
L 29.109375 43.015625 
Q 36.375 43.015625 40.234375 45.921875 
Q 44.09375 48.828125 44.09375 54.296875 
Q 44.09375 59.90625 40.109375 62.90625 
Q 36.140625 65.921875 28.71875 65.921875 
Q 24.65625 65.921875 20.015625 65.03125 
Q 15.375 64.15625 9.8125 62.3125 
L 9.8125 71.09375 
Q 15.4375 72.65625 20.34375 73.4375 
Q 25.25 74.21875 29.59375 74.21875 
Q 40.828125 74.21875 47.359375 69.109375 
Q 53.90625 64.015625 53.90625 55.328125 
Q 53.90625 49.265625 50.4375 45.09375 
Q 46.96875 40.921875 40.578125 39.3125 
z
" id="DejaVuSans-33"/>
      </defs>
      <g transform="translate(21.971875 198.440234)scale(0.1 -0.1)">
       <use xlink:href="#DejaVuSans-32"/>
       <use x="63.623047" xlink:href="#DejaVuSans-2e"/>
       <use x="95.410156" xlink:href="#DejaVuSans-33"/>
       <use x="159.033203" xlink:href="#DejaVuSans-34"/>
       <use x="222.65625" xlink:href="#DejaVuSans-33"/>
      </g>
     </g>
    </g>
    <g id="ytick_6">
     <g id="line2d_13">
      <g>
       <use style="stroke:#000000;stroke-width:0.8;" x="57.6" xlink:href="#m4afc95f62a" y="166.405269"/>
      </g>
     </g>
     <g id="text_14">
      <!-- 2.929 -->
      <defs>
       <path d="M 10.984375 1.515625 
L 10.984375 10.5 
Q 14.703125 8.734375 18.5 7.8125 
Q 22.3125 6.890625 25.984375 6.890625 
Q 35.75 6.890625 40.890625 13.453125 
Q 46.046875 20.015625 46.78125 33.40625 
Q 43.953125 29.203125 39.59375 26.953125 
Q 35.25 24.703125 29.984375 24.703125 
Q 19.046875 24.703125 12.671875 31.3125 
Q 6.296875 37.9375 6.296875 49.421875 
Q 6.296875 60.640625 12.9375 67.421875 
Q 19.578125 74.21875 30.609375 74.21875 
Q 43.265625 74.21875 49.921875 64.515625 
Q 56.59375 54.828125 56.59375 36.375 
Q 56.59375 19.140625 48.40625 8.859375 
Q 40.234375 -1.421875 26.421875 -1.421875 
Q 22.703125 -1.421875 18.890625 -0.6875 
Q 15.09375 0.046875 10.984375 1.515625 
z
M 30.609375 32.421875 
Q 37.25 32.421875 41.125 36.953125 
Q 45.015625 41.5 45.015625 49.421875 
Q 45.015625 57.28125 41.125 61.84375 
Q 37.25 66.40625 30.609375 66.40625 
Q 23.96875 66.40625 20.09375 61.84375 
Q 16.21875 57.28125 16.21875 49.421875 
Q 16.21875 41.5 20.09375 36.953125 
Q 23.96875 32.421875 30.609375 32.421875 
z
" id="DejaVuSans-39"/>
      </defs>
      <g transform="translate(21.971875 170.204488)scale(0.1 -0.1)">
       <use xlink:href="#DejaVuSans-32"/>
       <use x="63.623047" xlink:href="#DejaVuSans-2e"/>
       <use x="95.410156" xlink:href="#DejaVuSans-39"/>
       <use x="159.033203" xlink:href="#DejaVuSans-32"/>
       <use x="222.65625" xlink:href="#DejaVuSans-39"/>
      </g>
     </g>
    </g>
    <g id="ytick_7">
     <g id="line2d_14">
      <g>
       <use style="stroke:#000000;stroke-width:0.8;" x="57.6" xlink:href="#m4afc95f62a" y="138.169523"/>
      </g>
     </g>
     <g id="text_15">
      <!-- 3.515 -->
      <g transform="translate(21.971875 141.968741)scale(0.1 -0.1)">
       <use xlink:href="#DejaVuSans-33"/>
       <use x="63.623047" xlink:href="#DejaVuSans-2e"/>
       <use x="95.410156" xlink:href="#DejaVuSans-35"/>
       <use x="159.033203" xlink:href="#DejaVuSans-31"/>
       <use x="222.65625" xlink:href="#DejaVuSans-35"/>
      </g>
     </g>
    </g>
    <g id="ytick_8">
     <g id="line2d_15">
      <g>
       <use style="stroke:#000000;stroke-width:0.8;" x="57.6" xlink:href="#m4afc95f62a" y="109.933776"/>
      </g>
     </g>
     <g id="text_16">
      <!-- 4.100 -->
      <g transform="translate(21.971875 113.732995)scale(0.1 -0.1)">
       <use xlink:href="#DejaVuSans-34"/>
       <use x="63.623047" xlink:href="#DejaVuSans-2e"/>
       <use x="95.410156" xlink:href="#DejaVuSans-31"/>
       <use x="159.033203" xlink:href="#DejaVuSans-30"/>
       <use x="222.65625" xlink:href="#DejaVuSans-30"/>
      </g>
     </g>
    </g>
    <g id="ytick_9">
     <g id="line2d_16">
      <g>
       <use style="stroke:#000000;stroke-width:0.8;" x="57.6" xlink:href="#m4afc95f62a" y="81.69803"/>
      </g>
     </g>
     <g id="text_17">
      <!-- 4.686 -->
      <g transform="translate(21.971875 85.497249)scale(0.1 -0.1)">
       <use xlink:href="#DejaVuSans-34"/>
       <use x="63.623047" xlink:href="#DejaVuSans-2e"/>
       <use x="95.410156" xlink:href="#DejaVuSans-36"/>
       <use x="159.033203" xlink:href="#DejaVuSans-38"/>
       <use x="222.65625" xlink:href="#DejaVuSans-36"/>
      </g>
     </g>
    </g>
    <g id="ytick_10">
     <g id="line2d_17">
      <g>
       <use style="stroke:#000000;stroke-width:0.8;" x="57.6" xlink:href="#m4afc95f62a" y="53.462284"/>
      </g>
     </g>
     <g id="text_18">
      <!-- 5.272 -->
      <g transform="translate(21.971875 57.261503)scale(0.1 -0.1)">
       <use xlink:href="#DejaVuSans-35"/>
       <use x="63.623047" xlink:href="#DejaVuSans-2e"/>
       <use x="95.410156" xlink:href="#DejaVuSans-32"/>
       <use x="159.033203" xlink:href="#DejaVuSans-37"/>
       <use x="222.65625" xlink:href="#DejaVuSans-32"/>
      </g>
     </g>
    </g>
    <g id="text_19">
     <!-- Loss -->
     <defs>
      <path d="M 9.8125 72.90625 
L 19.671875 72.90625 
L 19.671875 8.296875 
L 55.171875 8.296875 
L 55.171875 0 
L 9.8125 0 
z
" id="DejaVuSans-4c"/>
     </defs>
     <g transform="translate(15.892188 185.581906)rotate(-90)scale(0.1 -0.1)">
      <use xlink:href="#DejaVuSans-4c"/>
      <use x="55.697266" xlink:href="#DejaVuSans-6f"/>
      <use x="116.878906" xlink:href="#DejaVuSans-73"/>
      <use x="168.978516" xlink:href="#DejaVuSans-73"/>
     </g>
    </g>
   </g>
   <g id="line2d_18">
    <defs>
     <path d="M 0 3 
C 0.795609 3 1.55874 2.683901 2.12132 2.12132 
C 2.683901 1.55874 3 0.795609 3 0 
C 3 -0.795609 2.683901 -1.55874 2.12132 -2.12132 
C 1.55874 -2.683901 0.795609 -3 0 -3 
C -0.795609 -3 -1.55874 -2.683901 -2.12132 -2.12132 
C -2.683901 -1.55874 -3 -0.795609 -3 0 
C -3 0.795609 -2.683901 1.55874 -2.12132 2.12132 
C -1.55874 2.683901 -0.795609 3 0 3 
z
" id="m10fe83b89a" style="stroke:#ff0000;"/>
    </defs>
    <g clip-path="url(#p4154f4555c)">
     <use style="fill:#ff0000;stroke:#ff0000;" x="73.832727" xlink:href="#m10fe83b89a" y="53.462284"/>
     <use style="fill:#ff0000;stroke:#ff0000;" x="76.560917" xlink:href="#m10fe83b89a" y="88.167829"/>
     <use style="fill:#ff0000;stroke:#ff0000;" x="79.289106" xlink:href="#m10fe83b89a" y="117.137319"/>
     <use style="fill:#ff0000;stroke:#ff0000;" x="82.017296" xlink:href="#m10fe83b89a" y="138.24986"/>
     <use style="fill:#ff0000;stroke:#ff0000;" x="84.745485" xlink:href="#m10fe83b89a" y="148.324108"/>
     <use style="fill:#ff0000;stroke:#ff0000;" x="87.473675" xlink:href="#m10fe83b89a" y="163.555986"/>
     <use style="fill:#ff0000;stroke:#ff0000;" x="90.201864" xlink:href="#m10fe83b89a" y="164.08621"/>
     <use style="fill:#ff0000;stroke:#ff0000;" x="92.930053" xlink:href="#m10fe83b89a" y="182.933249"/>
     <use style="fill:#ff0000;stroke:#ff0000;" x="95.658243" xlink:href="#m10fe83b89a" y="197.008276"/>
     <use style="fill:#ff0000;stroke:#ff0000;" x="98.386432" xlink:href="#m10fe83b89a" y="192.911094"/>
     <use style="fill:#ff0000;stroke:#ff0000;" x="101.114622" xlink:href="#m10fe83b89a" y="207.034323"/>
     <use style="fill:#ff0000;stroke:#ff0000;" x="103.842811" xlink:href="#m10fe83b89a" y="206.937918"/>
     <use style="fill:#ff0000;stroke:#ff0000;" x="106.571001" xlink:href="#m10fe83b89a" y="211.613526"/>
     <use style="fill:#ff0000;stroke:#ff0000;" x="109.29919" xlink:href="#m10fe83b89a" y="223.615861"/>
     <use style="fill:#ff0000;stroke:#ff0000;" x="112.02738" xlink:href="#m10fe83b89a" y="221.398562"/>
     <use style="fill:#ff0000;stroke:#ff0000;" x="114.755569" xlink:href="#m10fe83b89a" y="222.507212"/>
     <use style="fill:#ff0000;stroke:#ff0000;" x="117.483759" xlink:href="#m10fe83b89a" y="229.159108"/>
     <use style="fill:#ff0000;stroke:#ff0000;" x="120.211948" xlink:href="#m10fe83b89a" y="230.990789"/>
     <use style="fill:#ff0000;stroke:#ff0000;" x="122.940138" xlink:href="#m10fe83b89a" y="227.520235"/>
     <use style="fill:#ff0000;stroke:#ff0000;" x="125.668327" xlink:href="#m10fe83b89a" y="234.316737"/>
     <use style="fill:#ff0000;stroke:#ff0000;" x="128.396516" xlink:href="#m10fe83b89a" y="235.859206"/>
     <use style="fill:#ff0000;stroke:#ff0000;" x="131.124706" xlink:href="#m10fe83b89a" y="234.702355"/>
     <use style="fill:#ff0000;stroke:#ff0000;" x="133.852895" xlink:href="#m10fe83b89a" y="239.329761"/>
     <use style="fill:#ff0000;stroke:#ff0000;" x="136.581085" xlink:href="#m10fe83b89a" y="249.114796"/>
     <use style="fill:#ff0000;stroke:#ff0000;" x="139.309274" xlink:href="#m10fe83b89a" y="234.413142"/>
     <use style="fill:#ff0000;stroke:#ff0000;" x="142.037464" xlink:href="#m10fe83b89a" y="244.101773"/>
     <use style="fill:#ff0000;stroke:#ff0000;" x="144.765653" xlink:href="#m10fe83b89a" y="255.525682"/>
     <use style="fill:#ff0000;stroke:#ff0000;" x="147.493843" xlink:href="#m10fe83b89a" y="242.029081"/>
     <use style="fill:#ff0000;stroke:#ff0000;" x="150.222032" xlink:href="#m10fe83b89a" y="244.24638"/>
     <use style="fill:#ff0000;stroke:#ff0000;" x="152.950222" xlink:href="#m10fe83b89a" y="258.948034"/>
     <use style="fill:#ff0000;stroke:#ff0000;" x="155.678411" xlink:href="#m10fe83b89a" y="252.440744"/>
     <use style="fill:#ff0000;stroke:#ff0000;" x="158.4066" xlink:href="#m10fe83b89a" y="253.356585"/>
     <use style="fill:#ff0000;stroke:#ff0000;" x="161.13479" xlink:href="#m10fe83b89a" y="254.513437"/>
     <use style="fill:#ff0000;stroke:#ff0000;" x="163.862979" xlink:href="#m10fe83b89a" y="259.622864"/>
     <use style="fill:#ff0000;stroke:#ff0000;" x="166.591169" xlink:href="#m10fe83b89a" y="258.948034"/>
     <use style="fill:#ff0000;stroke:#ff0000;" x="169.319358" xlink:href="#m10fe83b89a" y="253.935011"/>
     <use style="fill:#ff0000;stroke:#ff0000;" x="172.047548" xlink:href="#m10fe83b89a" y="255.188267"/>
     <use style="fill:#ff0000;stroke:#ff0000;" x="174.775737" xlink:href="#m10fe83b89a" y="266.322963"/>
     <use style="fill:#ff0000;stroke:#ff0000;" x="177.503927" xlink:href="#m10fe83b89a" y="263.382632"/>
     <use style="fill:#ff0000;stroke:#ff0000;" x="180.232116" xlink:href="#m10fe83b89a" y="264.394877"/>
     <use style="fill:#ff0000;stroke:#ff0000;" x="182.960306" xlink:href="#m10fe83b89a" y="263.382632"/>
     <use style="fill:#ff0000;stroke:#ff0000;" x="185.688495" xlink:href="#m10fe83b89a" y="262.273982"/>
     <use style="fill:#ff0000;stroke:#ff0000;" x="188.416684" xlink:href="#m10fe83b89a" y="261.840163"/>
     <use style="fill:#ff0000;stroke:#ff0000;" x="191.144874" xlink:href="#m10fe83b89a" y="269.841719"/>
     <use style="fill:#ff0000;stroke:#ff0000;" x="193.873063" xlink:href="#m10fe83b89a" y="267.672623"/>
     <use style="fill:#ff0000;stroke:#ff0000;" x="196.601253" xlink:href="#m10fe83b89a" y="268.684868"/>
     <use style="fill:#ff0000;stroke:#ff0000;" x="199.329442" xlink:href="#m10fe83b89a" y="267.190601"/>
     <use style="fill:#ff0000;stroke:#ff0000;" x="202.057632" xlink:href="#m10fe83b89a" y="269.986326"/>
     <use style="fill:#ff0000;stroke:#ff0000;" x="204.785821" xlink:href="#m10fe83b89a" y="273.938902"/>
     <use style="fill:#ff0000;stroke:#ff0000;" x="207.514011" xlink:href="#m10fe83b89a" y="276.879233"/>
     <use style="fill:#ff0000;stroke:#ff0000;" x="210.2422" xlink:href="#m10fe83b89a" y="268.588464"/>
     <use style="fill:#ff0000;stroke:#ff0000;" x="212.97039" xlink:href="#m10fe83b89a" y="268.154644"/>
     <use style="fill:#ff0000;stroke:#ff0000;" x="215.698579" xlink:href="#m10fe83b89a" y="272.685646"/>
     <use style="fill:#ff0000;stroke:#ff0000;" x="218.426769" xlink:href="#m10fe83b89a" y="267.238803"/>
     <use style="fill:#ff0000;stroke:#ff0000;" x="221.154958" xlink:href="#m10fe83b89a" y="275.625977"/>
     <use style="fill:#ff0000;stroke:#ff0000;" x="223.883147" xlink:href="#m10fe83b89a" y="276.493616"/>
     <use style="fill:#ff0000;stroke:#ff0000;" x="226.611337" xlink:href="#m10fe83b89a" y="276.734626"/>
     <use style="fill:#ff0000;stroke:#ff0000;" x="229.339526" xlink:href="#m10fe83b89a" y="277.602265"/>
     <use style="fill:#ff0000;stroke:#ff0000;" x="232.067716" xlink:href="#m10fe83b89a" y="272.685646"/>
     <use style="fill:#ff0000;stroke:#ff0000;" x="234.795905" xlink:href="#m10fe83b89a" y="282.856299"/>
     <use style="fill:#ff0000;stroke:#ff0000;" x="237.524095" xlink:href="#m10fe83b89a" y="274.179913"/>
     <use style="fill:#ff0000;stroke:#ff0000;" x="240.252284" xlink:href="#m10fe83b89a" y="277.023839"/>
     <use style="fill:#ff0000;stroke:#ff0000;" x="242.980474" xlink:href="#m10fe83b89a" y="277.457658"/>
     <use style="fill:#ff0000;stroke:#ff0000;" x="245.708663" xlink:href="#m10fe83b89a" y="277.409456"/>
     <use style="fill:#ff0000;stroke:#ff0000;" x="248.436853" xlink:href="#m10fe83b89a" y="284.205959"/>
     <use style="fill:#ff0000;stroke:#ff0000;" x="251.165042" xlink:href="#m10fe83b89a" y="278.421701"/>
     <use style="fill:#ff0000;stroke:#ff0000;" x="253.893231" xlink:href="#m10fe83b89a" y="278.951925"/>
     <use style="fill:#ff0000;stroke:#ff0000;" x="256.621421" xlink:href="#m10fe83b89a" y="282.036862"/>
     <use style="fill:#ff0000;stroke:#ff0000;" x="259.34961" xlink:href="#m10fe83b89a" y="278.710914"/>
     <use style="fill:#ff0000;stroke:#ff0000;" x="262.0778" xlink:href="#m10fe83b89a" y="278.277095"/>
     <use style="fill:#ff0000;stroke:#ff0000;" x="264.805989" xlink:href="#m10fe83b89a" y="285.170002"/>
     <use style="fill:#ff0000;stroke:#ff0000;" x="267.534179" xlink:href="#m10fe83b89a" y="275.818785"/>
     <use style="fill:#ff0000;stroke:#ff0000;" x="270.262368" xlink:href="#m10fe83b89a" y="281.121022"/>
     <use style="fill:#ff0000;stroke:#ff0000;" x="272.990558" xlink:href="#m10fe83b89a" y="280.735404"/>
     <use style="fill:#ff0000;stroke:#ff0000;" x="275.718747" xlink:href="#m10fe83b89a" y="280.494394"/>
     <use style="fill:#ff0000;stroke:#ff0000;" x="278.446937" xlink:href="#m10fe83b89a" y="279.144734"/>
     <use style="fill:#ff0000;stroke:#ff0000;" x="281.175126" xlink:href="#m10fe83b89a" y="280.253383"/>
     <use style="fill:#ff0000;stroke:#ff0000;" x="283.903316" xlink:href="#m10fe83b89a" y="277.795073"/>
     <use style="fill:#ff0000;stroke:#ff0000;" x="286.631505" xlink:href="#m10fe83b89a" y="282.952703"/>
     <use style="fill:#ff0000;stroke:#ff0000;" x="289.359694" xlink:href="#m10fe83b89a" y="284.68798"/>
     <use style="fill:#ff0000;stroke:#ff0000;" x="292.087884" xlink:href="#m10fe83b89a" y="280.639"/>
     <use style="fill:#ff0000;stroke:#ff0000;" x="294.816073" xlink:href="#m10fe83b89a" y="281.121022"/>
     <use style="fill:#ff0000;stroke:#ff0000;" x="297.544263" xlink:href="#m10fe83b89a" y="284.302363"/>
     <use style="fill:#ff0000;stroke:#ff0000;" x="300.272452" xlink:href="#m10fe83b89a" y="286.182247"/>
     <use style="fill:#ff0000;stroke:#ff0000;" x="303.000642" xlink:href="#m10fe83b89a" y="285.603821"/>
     <use style="fill:#ff0000;stroke:#ff0000;" x="305.728831" xlink:href="#m10fe83b89a" y="290.954259"/>
     <use style="fill:#ff0000;stroke:#ff0000;" x="308.457021" xlink:href="#m10fe83b89a" y="287.049886"/>
     <use style="fill:#ff0000;stroke:#ff0000;" x="311.18521" xlink:href="#m10fe83b89a" y="287.001683"/>
     <use style="fill:#ff0000;stroke:#ff0000;" x="313.9134" xlink:href="#m10fe83b89a" y="289.84561"/>
     <use style="fill:#ff0000;stroke:#ff0000;" x="316.641589" xlink:href="#m10fe83b89a" y="282.759895"/>
     <use style="fill:#ff0000;stroke:#ff0000;" x="319.369778" xlink:href="#m10fe83b89a" y="285.700226"/>
     <use style="fill:#ff0000;stroke:#ff0000;" x="322.097968" xlink:href="#m10fe83b89a" y="288.254939"/>
     <use style="fill:#ff0000;stroke:#ff0000;" x="324.826157" xlink:href="#m10fe83b89a" y="287.001683"/>
     <use style="fill:#ff0000;stroke:#ff0000;" x="327.554347" xlink:href="#m10fe83b89a" y="284.01315"/>
     <use style="fill:#ff0000;stroke:#ff0000;" x="330.282536" xlink:href="#m10fe83b89a" y="285.79663"/>
     <use style="fill:#ff0000;stroke:#ff0000;" x="333.010726" xlink:href="#m10fe83b89a" y="284.109555"/>
     <use style="fill:#ff0000;stroke:#ff0000;" x="335.738915" xlink:href="#m10fe83b89a" y="283.145512"/>
     <use style="fill:#ff0000;stroke:#ff0000;" x="338.467105" xlink:href="#m10fe83b89a" y="286.808875"/>
     <use style="fill:#ff0000;stroke:#ff0000;" x="341.195294" xlink:href="#m10fe83b89a" y="290.616844"/>
     <use style="fill:#ff0000;stroke:#ff0000;" x="343.923484" xlink:href="#m10fe83b89a" y="282.808097"/>
     <use style="fill:#ff0000;stroke:#ff0000;" x="346.651673" xlink:href="#m10fe83b89a" y="292.062909"/>
     <use style="fill:#ff0000;stroke:#ff0000;" x="349.379862" xlink:href="#m10fe83b89a" y="291.484483"/>
     <use style="fill:#ff0000;stroke:#ff0000;" x="352.108052" xlink:href="#m10fe83b89a" y="288.447748"/>
     <use style="fill:#ff0000;stroke:#ff0000;" x="354.836241" xlink:href="#m10fe83b89a" y="290.472238"/>
     <use style="fill:#ff0000;stroke:#ff0000;" x="357.564431" xlink:href="#m10fe83b89a" y="290.761451"/>
     <use style="fill:#ff0000;stroke:#ff0000;" x="360.29262" xlink:href="#m10fe83b89a" y="288.881567"/>
     <use style="fill:#ff0000;stroke:#ff0000;" x="363.02081" xlink:href="#m10fe83b89a" y="282.904501"/>
     <use style="fill:#ff0000;stroke:#ff0000;" x="365.748999" xlink:href="#m10fe83b89a" y="285.314608"/>
     <use style="fill:#ff0000;stroke:#ff0000;" x="368.477189" xlink:href="#m10fe83b89a" y="289.363589"/>
     <use style="fill:#ff0000;stroke:#ff0000;" x="371.205378" xlink:href="#m10fe83b89a" y="293.267963"/>
     <use style="fill:#ff0000;stroke:#ff0000;" x="373.933568" xlink:href="#m10fe83b89a" y="283.434725"/>
     <use style="fill:#ff0000;stroke:#ff0000;" x="376.661757" xlink:href="#m10fe83b89a" y="288.544152"/>
     <use style="fill:#ff0000;stroke:#ff0000;" x="379.389947" xlink:href="#m10fe83b89a" y="287.14629"/>
     <use style="fill:#ff0000;stroke:#ff0000;" x="382.118136" xlink:href="#m10fe83b89a" y="279.723159"/>
     <use style="fill:#ff0000;stroke:#ff0000;" x="384.846325" xlink:href="#m10fe83b89a" y="293.026952"/>
     <use style="fill:#ff0000;stroke:#ff0000;" x="387.574515" xlink:href="#m10fe83b89a" y="288.592354"/>
     <use style="fill:#ff0000;stroke:#ff0000;" x="390.302704" xlink:href="#m10fe83b89a" y="286.664268"/>
     <use style="fill:#ff0000;stroke:#ff0000;" x="393.030894" xlink:href="#m10fe83b89a" y="289.122578"/>
     <use style="fill:#ff0000;stroke:#ff0000;" x="395.759083" xlink:href="#m10fe83b89a" y="288.736961"/>
     <use style="fill:#ff0000;stroke:#ff0000;" x="398.487273" xlink:href="#m10fe83b89a" y="287.772918"/>
    </g>
   </g>
   <g id="patch_3">
    <path d="M 57.6 307.584 
L 57.6 41.472 
" style="fill:none;stroke:#000000;stroke-linecap:square;stroke-linejoin:miter;stroke-width:0.8;"/>
   </g>
   <g id="patch_4">
    <path d="M 414.72 307.584 
L 414.72 41.472 
" style="fill:none;stroke:#000000;stroke-linecap:square;stroke-linejoin:miter;stroke-width:0.8;"/>
   </g>
   <g id="patch_5">
    <path d="M 57.6 307.584 
L 414.72 307.584 
" style="fill:none;stroke:#000000;stroke-linecap:square;stroke-linejoin:miter;stroke-width:0.8;"/>
   </g>
   <g id="patch_6">
    <path d="M 57.6 41.472 
L 414.72 41.472 
" style="fill:none;stroke:#000000;stroke-linecap:square;stroke-linejoin:miter;stroke-width:0.8;"/>
   </g>
  </g>
 </g>
 <defs>
  <clipPath id="p4154f4555c">
   <rect height="266.112" width="357.12" x="57.6" y="41.472"/>
  </clipPath>
 </defs>
</svg>
